<svg xmlns="http://www.w3.org/2000/svg" xmlns:xlink="http://www.w3.org/1999/xlink" width="174.047" height="177.147"
     viewBox="0 0 174.047 177.147">
    <defs>
        <linearGradient id="linear-gradient" x1="0.492" y1="0.963" x2="0.496" y2="0.208"
                        gradientUnits="objectBoundingBox">
            <stop offset="0" stop-color="#fec421"/>
            <stop offset="1" stop-color="#bc541b"/>
        </linearGradient>
        <linearGradient id="linear-gradient-2" x1="0.477" y1="1.487" x2="0.506" y2="0.052"
                        xlink:href="#linear-gradient"/>
        <linearGradient id="linear-gradient-3" x1="8.635" y1="-8.371" x2="-7.577" y2="9.298"
                        gradientUnits="objectBoundingBox">
            <stop offset="0" stop-color="#edd753"/>
            <stop offset="1" stop-color="#030303"/>
        </linearGradient>
        <linearGradient id="linear-gradient-4" x1="50.258" y1="-205.601" x2="3.934" y2="-13.758"
                        xlink:href="#linear-gradient-3"/>
        <linearGradient id="linear-gradient-5" x1="1.076" y1="-0.151" x2="0.12" y2="0.82"
                        xlink:href="#linear-gradient-3"/>
    </defs>
    <g id="close" transform="translate(-358.559 -291.412)">
        <path id="Path_81" data-name="Path 81"
              d="M528.674,327.2c-.885-.885-1.328-2.213-2.213-3.1a19.253,19.253,0,0,0-3.1-2.655,1.626,1.626,0,0,0-1.328-.443c-1.77-.442-3.54.885-4.868,2.213,1.77-2.655.885-5.753,0-8.851-.443-.885-.443-2.213-1.328-3.1l-1.77-1.77a28.633,28.633,0,0,0-3.54-3.983,20.972,20.972,0,0,0-4.425-4.425,9.243,9.243,0,0,0-13.276-.885q-21.242,17.922-42.483,37.172c-4.425-5.31-9.293-10.178-14.161-15.489-1.328-1.328-2.213-2.655-3.54-3.983-.885-.885-1.77-2.213-2.655-2.655a6.29,6.29,0,0,0-2.655-.885c-.885,0-1.328-.443-2.213-.443a19.161,19.161,0,0,0-2.213.443,18.306,18.306,0,0,0-2.213-8.408c-.885-1.328-1.77-2.213-2.655-3.54-.443-.442-.885-.885-.885-1.327-.442-.885-1.328-1.328-1.77-2.213a39.879,39.879,0,0,1-3.983-4.425c-3.54-3.983-9.293-3.983-13.276-.443a22.169,22.169,0,0,0-3.54,3.1c-5.31,4.425-10.178,9.293-15.046,14.161-2.213,2.213-4.425,4.868-7.081,7.081-2.655,2.655-3.983,6.2-5.753,8.851-1.77,3.1-3.983,5.753-4.425,9.293a13.256,13.256,0,0,0,2.655,7.965c4.868,5.311,9.736,10.621,14.161,15.489,2.655,2.655,4.868,5.31,7.523,7.965,1.328,1.328,2.655,3.1,3.983,4.425a6.108,6.108,0,0,1,1.328,1.77,6.5,6.5,0,0,0,2.655,2.213l3.983,1.328c.885,0,1.77.443,2.655,0,1.328,0,3.1-.885,4.425-.885l-3.1,3.1a25.307,25.307,0,0,0-3.1,3.54c-.885.885-1.77.885-2.655,1.77s-1.77,1.328-2.213,2.213l-15.931,14.6c-1.328,1.328-2.655,2.213-3.983,3.54a96.118,96.118,0,0,0-13.718,15.931,18.491,18.491,0,0,0-1.77,4.425c-.443,1.327-.885,3.54-.443,4.868,0,.443.443,1.328.443,1.77a7.135,7.135,0,0,0,1.77,3.1,6.177,6.177,0,0,0,3.983,1.328,15.728,15.728,0,0,0,4.425-.885,9.261,9.261,0,0,1-1.77,2.655,1.626,1.626,0,0,0-.442,1.328c0,.443.442.885.442,1.328,1.328,2.655,3.54,4.868,5.753,7.081a20.435,20.435,0,0,1,3.1,3.1,7.769,7.769,0,0,0,1.77,2.213c1.327,2.213,3.54,3.983,5.31,5.753a9.231,9.231,0,0,0,13.276.443c12.391-11.063,24.782-21.684,36.73-32.747a10.338,10.338,0,0,0,3.1-3.1l1.328-1.328c1.327-.885,3.1-1.77,4.425-2.655-1.328,1.77-.885,3.983-.443,6.2.885,3.1,3.1,5.31,4.868,7.523,2.213,2.655,4.868,5.31,7.081,7.966,4.868,5.31,9.293,10.178,14.161,15.489,2.655,2.655,4.868,5.31,7.523,7.965a9.244,9.244,0,0,0,13.276.885l23.9-19.914,1.77-1.77a.433.433,0,0,0,.443-.443,44.553,44.553,0,0,0,8.851-14.6,10.016,10.016,0,0,0-.443-7.965c-.442-.885-.885-2.213-1.77-2.655-3.54-3.983-7.08-7.966-10.621-11.506-4.868-5.31-9.293-10.621-14.161-15.931-.443-.885-1.328-1.328-1.77-2.213a6.115,6.115,0,0,1-1.328-1.77,7.94,7.94,0,0,0-2.213-3.1,8.9,8.9,0,0,0-3.54-1.77c-.443,0-1.328-.442-1.77-.442s-1.77-.443-1.77,0a18.869,18.869,0,0,1,5.31-4.868,11.087,11.087,0,0,0,3.1-1.77,19.254,19.254,0,0,1,3.1-2.655c1.328-1.328,2.655-2.213,3.983-3.54,2.655-2.213,4.868-4.425,7.523-6.638,4.425-3.983,9.293-7.523,12.833-12.391,3.983-6.2,12.391-13.718,8.408-21.684C529.559,328.532,529.116,327.647,528.674,327.2Z"
              transform="translate(0 0)" fill="#862818"/>
        <path id="Path_82" data-name="Path 82"
              d="M466.584,389.01c-1.327,1.328-2.655,3.1-3.983,4.425,1.77-.885,3.54-2.213,5.31-3.1a61.934,61.934,0,0,0,7.08-4.425,16.361,16.361,0,0,1,4.868-2.213,6.144,6.144,0,0,1,4.868.885c1.77,1.77,1.77,4.868,1.328,7.523.443-.885,1.77-1.328,3.1-1.328a7.134,7.134,0,0,1,3.1,1.77c1.328.885,2.655,2.213,3.983,3.1.443.443.443.885.885,1.327a3.456,3.456,0,0,0,1.77,1.77c2.213,2.213,3.983,4.425,6.2,7.081.442.443.442.885.885.885,3.54,3.983,7.081,7.966,10.621,11.506,3.983,4.425,3.54,11.506-.885,15.046l-23.012,19.471-.443.443a9.244,9.244,0,0,1-13.276-.885,56.969,56.969,0,0,0-7.081-7.523c-4.868-5.31-9.293-10.178-14.161-15.046-2.213-2.655-4.868-5.31-7.08-7.965l-3.1-3.1c-.885-1.328-2.213-2.655-2.655-3.983-.885-1.77-1.77-4.425-1.328-6.2-.885,1.328-2.213,2.213-3.54,3.54-.443.442-.885,1.328-1.77,1.77a.433.433,0,0,0-.443.442,6.11,6.11,0,0,1-1.77,1.328c-.443,0-.443.443-.885.885l-.443.442c-1.328,1.328-2.655,2.213-3.983,3.54a25.324,25.324,0,0,1-3.54,3.1,11.932,11.932,0,0,1-3.54,3.1,28.639,28.639,0,0,0-3.983,3.54.433.433,0,0,0-.443.443c-.443,0-.443,0-.443-.443-.443-.443-.885-.443-1.328-.885a20.978,20.978,0,0,1-4.425-4.425c-1.77-2.213-3.54-4.868-5.753-6.638.885,2.213,2.213,3.983,3.1,6.2a7.475,7.475,0,0,1,.885,2.213c.442.885.442,1.327.885,2.213a10.412,10.412,0,0,1,.885,3.54,9.2,9.2,0,0,1-2.213,5.31c-.443.443-.885,1.328-1.77,2.213,0,.443-.443.443-.885.885-.885.885-2.213,1.77-3.1,2.655l-.443.443-5.31,4.425a8.431,8.431,0,0,1-4.425,2.213,9.438,9.438,0,0,1-8.85-2.655l-3.1-3.1c-.885-1.328-2.213-2.213-3.54-3.54a9.26,9.26,0,0,1-2.655-1.77c-1.328-.885-2.213-2.655-3.1-3.54L371,431.935c0-.442-.443-.442-.443-.885s.443-.885.885-1.328c2.213-2.213,3.983-4.868,6.2-7.081.885-1.328,2.213-2.213,3.1-3.54-.885.443-2.213,1.328-3.1,1.77h0c-1.77.885-3.1,1.77-4.868,2.655a15.716,15.716,0,0,1-3.983,1.77h-.443c-.442.443-.885.443-1.77.443-.443,0-.443,0-.885-.443a3.455,3.455,0,0,1-1.77-1.77,6.114,6.114,0,0,0-1.77-1.327,2.3,2.3,0,0,1-.885-1.77,11.149,11.149,0,0,1,2.655-11.506c.443,0,.443-.442.885-.442,2.655-2.655,5.31-4.868,7.965-7.523,2.655-2.213,5.31-4.868,7.966-7.081,4.868-4.868,10.178-9.293,15.046-14.161l.443-.442a28.629,28.629,0,0,1,3.983-3.54c.443-.443,1.328-.885,1.77-1.77,0-.442.443-.442.443-.885h0a.433.433,0,0,1,.442-.443c.443-.442.885-.442.885-.885h0a26.32,26.32,0,0,1,3.54-1.77,38.937,38.937,0,0,1,4.425-2.655h.443c3.54-2.213,6.638-3.983,10.178-6.2a52.146,52.146,0,0,1,8.408-4.868c-.443,0-.885,0-.885.443-2.655.442-5.31,1.77-7.965,2.655-4.868,1.77-9.736,3.983-15.046,4.868-.885,0-1.77.443-3.1.443-2.213,0-4.425,0-5.753-.885a11.733,11.733,0,0,1-2.655-2.213c-.885-.885-1.77-.885-2.213-1.77-8.851-9.293-17.259-18.586-25.667-28.322a10.768,10.768,0,0,1,0-14.161l.443-.442a238.069,238.069,0,0,1,24.339-23.012,5.463,5.463,0,0,1,3.54-1.77c2.213-.885,4.425-.442,6.638,0a9.634,9.634,0,0,1,3.54,2.213l3.983,3.983c2.655,2.655,6.638,7.081,5.753,11.063-.442,1.77-.885,3.54-1.328,4.868-.442.885-.442,1.77-.885,2.213a40.453,40.453,0,0,1-3.1,6.2,25.289,25.289,0,0,0,3.1-3.54c.885-.885,1.328-1.77,2.213-2.655l.885-.885a11.73,11.73,0,0,1,2.213-2.655c.443-.443.443-.443.885-.443a4.887,4.887,0,0,1,3.54,0c3.1,1.328,6.638,5.753,8.851,8.408.885.885,1.328,1.77,2.213,2.655,1.77,2.213,3.983,4.425,5.753,6.638l1.77,1.77h0c1.328,1.328,2.655,3.1,3.983,4.425,5.311-4.868,10.621-9.293,15.489-14.161,8.851-7.965,17.7-15.489,26.552-23.011,3.983-3.54,9.736-2.655,13.276.885,2.213,2.213,10.621,10.621,9.293,13.276-.443.885-.885,1.328-1.328,2.213a48.308,48.308,0,0,1-5.753,7.523,75.676,75.676,0,0,0-4.868,6.2,15.89,15.89,0,0,0,4.425-3.1l3.1-3.1a58.882,58.882,0,0,1,8.408-6.2,1.546,1.546,0,0,0,.885-.442c.443,0,.443.442.885.442a38.494,38.494,0,0,1,5.31,6.2,17.76,17.76,0,0,1,3.54,7.081c.885,3.54.443,7.081-3.1,9.736-9.293,7.965-18.144,16.374-27.437,24.339-.885.885-1.77,1.328-2.655,2.213a44.076,44.076,0,0,0-4.868,4.425,10.649,10.649,0,0,1-3.54,2.655.434.434,0,0,0-.443.443,9.256,9.256,0,0,0-2.655,1.77.433.433,0,0,0-.443.442c-4.868,4.425-8.85,8.408-13.276,12.833Z"
              transform="translate(7.215 0.591)" fill="url(#linear-gradient)"/>
        <path id="Path_83" data-name="Path 83"
              d="M518.656,330.7c-1.77,1.77-3.1,3.983-4.868,5.753-11.063,12.391-23.9,24.339-38.5,32.3-15.046,7.966-32.3,11.948-48.678,7.966a63.389,63.389,0,0,1-19.471-8.408c-1.77-1.327-3.54-2.213-5.31-3.54-12.833-9.293-23.012-22.569-32.747-35.4l7.081,9.293c-5.31-6.638-11.063-13.718-14.161-21.241l.443-.442a238.063,238.063,0,0,1,24.339-23.012,5.463,5.463,0,0,1,3.54-1.77c2.213-.885,4.425-.442,6.638,0a9.633,9.633,0,0,1,3.54,2.213l3.983,3.983c2.655,2.655,6.638,7.081,5.753,11.063-.442,1.77-.885,3.54-1.328,4.868-.442.885-.442,1.77-.885,2.213a40.463,40.463,0,0,1-3.1,6.2,25.3,25.3,0,0,0,3.1-3.54c.885-.885,1.328-1.77,2.213-2.655l.885-.885a11.73,11.73,0,0,1,2.213-2.655c.443-.443.443-.443.885-.443,4.868-2.655,11.948,8.408,14.6,11.063,1.77,2.213,3.983,4.425,5.753,6.638s3.983,3.983,5.753,6.2c5.311-4.868,10.621-9.293,15.489-14.161,8.851-7.965,17.7-15.489,26.552-23.012,3.983-3.54,9.736-2.655,13.276.885,2.213,2.213,10.621,10.621,9.293,13.276-.443.885-.885,1.328-1.328,2.213a48.323,48.323,0,0,1-5.753,7.523,75.624,75.624,0,0,0-4.868,6.2,15.89,15.89,0,0,0,4.425-3.1l3.1-3.1a58.876,58.876,0,0,1,8.408-6.2,1.545,1.545,0,0,0,.885-.442c.443,0,.443.442.885.442C512.9,320.96,517.328,325.828,518.656,330.7Z"
              transform="translate(11.788 0.934)" fill="url(#linear-gradient-2)"/>
        <path id="Path_84" data-name="Path 84" d="M372.2,297.9Z" transform="translate(46.726 22.224)" fill="#fdd768"/>
        <path id="Path_85" data-name="Path 85"
              d="M426.994,356.931l-.442.442c-8.851,2.213-16.816,7.081-26.109,7.966-2.213,0-4.425,0-5.753-.885a11.731,11.731,0,0,1-2.655-2.213c-.885-.885-1.77-.885-2.213-1.77-8.408-9.293-17.259-18.586-25.667-28.322a11.367,11.367,0,0,1,0-14.6c7.523-8.408,15.931-15.931,24.339-23.454a9.623,9.623,0,0,1,13.276.442l3.983,3.983a11.727,11.727,0,0,1,2.213,2.655c1.77,1.77,3.54,4.425,3.54,7.081a10.412,10.412,0,0,1-.885,3.54,6.29,6.29,0,0,1-.885,2.655,7.477,7.477,0,0,0-.885,2.213,59.3,59.3,0,0,0,.443-8.851,7.53,7.53,0,0,0-.443-3.1c-.442-1.327-1.77-2.213-2.655-3.1-2.213-1.77-4.868-3.54-7.523-5.311a8.207,8.207,0,0,0-3.1-.885c-1.328,0-2.213.885-3.54,1.77a30.47,30.47,0,0,0-5.753,4.868c-.885.443-1.328.885-2.213,1.328-2.213.885-3.1,3.1-5.31,3.983-3.1,1.328-5.753,3.983-8.408,6.638s-5.31,5.31-5.753,8.851c-.443,3.1,1.328,5.753,2.655,8.408,1.328,1.77,2.213,3.54,3.54,5.31,2.655,3.54,5.311,6.638,7.966,9.736l9.293,9.293c1.77,1.328,3.1,3.1,4.868,4.425.885.885,2.213.885,3.54,1.328,2.213.442,3.983.885,6.2.442a17.756,17.756,0,0,0,6.638-1.328c.443,0,.885,0,.885-.442C415.931,358.7,421.241,357.816,426.994,356.931Z"
              transform="translate(10.075 0.808)" fill="#fdd768"/>
        <path id="Path_86" data-name="Path 86"
              d="M364.8,356.808a40.4,40.4,0,0,1,3.54,5.753h0a2.661,2.661,0,0,1-1.77.443c-.885,0-2.213-1.328-2.655-1.77a6.11,6.11,0,0,0-1.77-1.327,2.3,2.3,0,0,1-.885-1.77,11.148,11.148,0,0,1,2.655-11.506c.442,0,.442-.443.885-.443,5.31-4.868,10.621-9.736,15.931-14.161l15.931-14.6a28.635,28.635,0,0,1,3.983-3.54c.442-.443,1.328-.885,1.77-1.77,0-.443.442-.443.442-.885h0l1.328-1.328h0l-2.655,2.655-3.54,3.54c-2.213,2.213-4.425,4.868-7.08,7.081l-3.983,3.983c-7.08,7.523-14.161,14.6-21.684,22.127-.885.885-2.213,2.213-2.213,3.54A8.34,8.34,0,0,0,364.8,356.808Z"
              transform="translate(7.215 63.327)" fill="#fdd768"/>
        <path id="Path_87" data-name="Path 87"
              d="M405.283,331.036a9.2,9.2,0,0,1-2.213,5.31c-.443.885-1.328,1.328-1.77,2.213,0,.443-.443.443-.885.885-.885.885-2.213,1.77-3.1,2.655l-5.753,4.868a9.623,9.623,0,0,1-13.276-.442l-3.1-3.1-3.54-3.54a9.257,9.257,0,0,1-2.655-1.77c-1.328-.885-2.213-2.655-3.1-3.54l-2.655-3.983c0-.443-.442-.443-.442-.885s.442-.885.885-1.328c2.213-2.213,3.983-4.868,6.2-7.081-2.213,3.54-3.54,7.081-2.213,10.621a15.9,15.9,0,0,0,3.1,4.425c2.213,2.655,3.983,5.753,7.081,7.965l1.328,1.327a13.248,13.248,0,0,0,4.425,1.77c.885,0,1.328.443,2.213,0,1.328-.443,1.77-1.77,2.213-3.1a41.444,41.444,0,0,0,1.77-7.081,4.805,4.805,0,0,0,1.77,3.983,3.3,3.3,0,0,0,3.983-.443,19.253,19.253,0,0,0,3.1-2.655l2.655-2.655a3.763,3.763,0,0,0,1.328-2.213,3.99,3.99,0,0,0,.442-2.213,38.967,38.967,0,0,0-.885-7.523,18.5,18.5,0,0,1,1.77,4.425A5.059,5.059,0,0,1,405.283,331.036Z"
              transform="translate(14.528 102.376)" fill="#fdd768"/>
        <path id="Path_88" data-name="Path 88"
              d="M472.084,345.722l-23.9,19.914a9.243,9.243,0,0,1-13.276-.885c-2.213-2.655-4.868-5.31-7.081-7.523-4.425-5.31-9.293-10.178-14.161-15.046-2.213-2.655-4.868-5.31-7.08-7.965l-3.1-3.1c-.885-1.328-2.213-2.655-2.655-3.983-.885-1.77-1.77-3.983-1.328-6.2l-3.54,3.54c-.442.443-.885,1.328-1.77,1.77a.433.433,0,0,0-.443.443,6.108,6.108,0,0,1-1.77,1.328l-1.328,1.328c-1.328,1.327-2.655,2.213-3.983,3.54a11.929,11.929,0,0,0-3.54,3.1c-.885,1.328-2.655,2.213-3.54,3.1-1.328,1.328-2.655,2.213-3.983,3.54l-.443.443c-.443,0-.443,0-.443-.443-.443-.443-.885-.443-1.327-.885.442-.443.442-.885.885-1.328a11.932,11.932,0,0,0,3.54-3.1c5.31-3.983,10.178-8.408,15.046-12.833a28.627,28.627,0,0,1,3.983-3.54c.885-.443,1.328-1.328,2.213-1.77l.885-.885.885-.885c-.885,4.868,2.213,9.736,4.868,13.719,8.408,11.063,17.259,21.684,27.437,30.977a10.958,10.958,0,0,0,6.2,3.54,10.088,10.088,0,0,0,4.868-1.328,108.706,108.706,0,0,0,21.241-13.719c3.983-3.54,7.965-7.965,7.523-13.276-.442-3.983-3.1-7.081-5.753-9.736l-1.77-1.77c-2.213-1.327-4.868-.443-7.08.443,1.328-2.213,1.328-5.31.885-7.965h1.77c.443.443.443.885.885.885,3.54,3.983,7.08,7.965,10.621,11.506C476.952,335.1,476.509,342.182,472.084,345.722Z"
              transform="translate(50.836 89.017)" fill="#fdd768"/>
        <path id="Path_89" data-name="Path 89"
              d="M438.489,320.611c-9.293,7.966-18.144,16.374-27.437,24.339a88.557,88.557,0,0,1-7.081,6.2l-3.1,3.1a.433.433,0,0,0-.442.443,9.259,9.259,0,0,0-2.655,1.77l-.443.443a163.664,163.664,0,0,0-12.391,12.391H384.5A163.664,163.664,0,0,1,396.891,356.9a28.643,28.643,0,0,1,3.983-3.54,132.124,132.124,0,0,1,14.161-12.833c2.213-1.77,4.425-3.1,6.638-4.868a41.013,41.013,0,0,0,6.2-6.2c3.983-4.868,7.965-9.736,11.063-15.489a2.664,2.664,0,0,0,0-3.983c-.885-1.328-1.77-2.213-2.655-3.54-1.328-1.77-3.1-3.983-5.753-4.425a6.543,6.543,0,0,0-5.753,1.77l-.885.885a18.738,18.738,0,0,1-3.1,2.213,44.677,44.677,0,0,1-6.638,3.1,29.071,29.071,0,0,0,7.523-5.31,20.444,20.444,0,0,1,3.1-3.1l3.983-2.655a3.354,3.354,0,0,1,1.77-.885c.443,0,.443-.443.885-.443s.442.443.885.443C438.489,302.91,446.9,313.089,438.489,320.611Z"
              transform="translate(88.857 21.196)" fill="#fdd768"/>
        <path id="Path_90" data-name="Path 90"
              d="M464.561,309.648a9.682,9.682,0,0,1-1.328,2.213A28.481,28.481,0,0,0,447.745,294.6c-7.523,2.655-13.719,8.408-19.029,14.161-1.328,1.327-3.1,3.1-3.54,4.868-1.328,4.425,1.328,8.851,1.77,13.718-2.213-2.655-3.983-5.753-6.2-7.966-.443-.443-.885-.885-1.328-.885s-.885.443-1.328.443a112.044,112.044,0,0,0-18.586,16.816c-1.77-2.655-3.54-4.868-5.31-7.523a95.6,95.6,0,0,0-11.063-11.948,77.066,77.066,0,0,0-6.2-5.31,6.106,6.106,0,0,0-1.77-1.328c-.443,0-.885-.443-1.328-.885l-.442-.443c4.868-2.655,11.948,8.408,14.6,11.063,3.983,3.983,7.523,8.408,11.506,12.833q21.242-19.25,42.483-37.172c3.983-3.54,9.736-2.655,13.276.885C457.48,298.585,466.331,306.993,464.561,309.648Z"
              transform="translate(50.836 4.723)" fill="#fdd768"/>
        <path id="Path_91" data-name="Path 91"
              d="M376.07,300.04a8.9,8.9,0,0,1-1.77-3.54c3.1,1.328,6.638,5.753,8.851,8.408a24.325,24.325,0,0,0-3.983-3.1C378.283,300.925,376.955,300.925,376.07,300.04Z"
              transform="translate(53.919 17.428)" fill="url(#linear-gradient-3)"/>
        <path id="Path_92" data-name="Path 92"
              d="M361.8,322.243a7.529,7.529,0,0,0,3.1-.443h-.443c-.443.443-.885.443-1.77.443C362.242,322.685,362.242,322.685,361.8,322.243Z"
              transform="translate(11.103 104.088)" fill="url(#linear-gradient-4)"/>
        <path id="Path_93" data-name="Path 93"
              d="M512.618,318.8a32.58,32.58,0,0,1-6.2,1.77c-5.753,1.328-10.178,5.753-14.161,10.178-28.322,29.207-56.644,58.414-85.408,87.621l-1.77,1.77-1.77,1.77a88.084,88.084,0,0,0-12.833,15.931,62.665,62.665,0,0,0-3.54,7.965,9.438,9.438,0,0,1-8.851-2.655l-3.1-3.1c-.885-1.328-2.213-2.213-3.54-3.54a9.26,9.26,0,0,1-2.655-1.77c-1.328-.885-2.213-2.655-3.1-3.54l-2.655-3.983c0-.442-.443-.442-.443-.885s.443-.885.885-1.328c2.213-2.213,3.983-4.868,6.2-7.081.885-1.328,2.213-2.213,3.1-3.54-.885.443-2.213,1.328-3.1,1.77a.433.433,0,0,1,.443-.442c.885-.885,1.328-2.213,2.213-3.1,1.77-3.54,5.753-6.2,8.408-8.851,7.08-6.2,13.718-12.833,20.8-19.029L418.8,368.8c8.408-7.523,17.259-16.816,17.259-28.322a21.147,21.147,0,0,0-4.425-12.391c1.328,1.328,2.655,3.1,3.983,4.425,5.311-4.868,10.621-9.293,15.489-14.161,8.85-7.965,17.7-15.489,26.552-23.012,3.983-3.54,9.736-2.655,13.276.885,2.213,2.213,10.621,10.621,9.293,13.276-.443.885-.885,1.328-1.328,2.213a48.312,48.312,0,0,1-5.753,7.523,75.654,75.654,0,0,0-4.868,6.2,15.891,15.891,0,0,0,4.425-3.1l3.1-3.1a58.876,58.876,0,0,1,8.408-6.2,1.545,1.545,0,0,0,.885-.443c.443,0,.443.443.885.443A14.358,14.358,0,0,1,512.618,318.8Z"
              transform="translate(13.843 5.75)" fill="url(#linear-gradient-5)"
              style="mix-blend-mode: screen;isolation: isolate"/>
    </g>
</svg>
