<svg id="next-enbale" xmlns="http://www.w3.org/2000/svg" xmlns:xlink="http://www.w3.org/1999/xlink" width="100"
     height="114.234" viewBox="0 0 100 114.234">
    <defs>
        <linearGradient id="linear-gradient" x1="0.29" y1="-0.156" x2="0.413" y2="0.161"
                        gradientUnits="objectBoundingBox">
            <stop offset="0" stop-color="#cf5c2a"/>
            <stop offset="1" stop-color="#5a173e"/>
        </linearGradient>
        <linearGradient id="linear-gradient-2" x1="0.333" y1="-0.087" x2="1.216" y2="2.213"
                        xlink:href="#linear-gradient"/>
        <linearGradient id="linear-gradient-3" x1="0.452" y1="0.114" x2="1.144" y2="3.179"
                        xlink:href="#linear-gradient"/>
        <linearGradient id="linear-gradient-4" x1="0.9" y1="1.476" x2="0.825" y2="0.779" xlink:href="#linear-gradient"/>
    </defs>
    <path id="Path_17" data-name="Path 17"
          d="M314.115,398.93c.054-.108.108-.162.162-.27a8.166,8.166,0,0,0,.755-3.774c.054-2.534.431-5.23.431-7.818,0-2.642-.27-5.284-.162-7.926a5.81,5.81,0,0,0-.809-3.559,2.6,2.6,0,0,0-3.235-.97c1.618-.539,3.343-1.132,4.206-2.588A126.878,126.878,0,0,0,316,359.3a22.748,22.748,0,0,0-.971-2.426c-2.049-5.985-5.823-11.107-9-16.5a36.13,36.13,0,0,0-3.019-4.475,28.122,28.122,0,0,0-5.985-5.877,23.663,23.663,0,0,0-2.534-1.456c-5.553-2.858-11.376-5.877-17.685-6.578-8.95-1.024-14.45,4.313-21.351,8.95-4.367,2.965-8.681,5.931-12.886,9.058a75.653,75.653,0,0,0-7.009,6.093,33.5,33.5,0,0,0-4.1,4.205,3.108,3.108,0,0,0-.431,2.75,1.066,1.066,0,0,1,.108.593.958.958,0,0,1-.377.431,11.059,11.059,0,0,1-2.534,1.564c-.593.216-1.24.162-1.887.377-1.833.647-3.181,2.265-4.421,3.72l-.162.162c-1.078,1.294-2.211,2.642-3.289,3.936a7.327,7.327,0,0,0-1.456,1.941,11.176,11.176,0,0,0-.755,2.264,11.99,11.99,0,0,0,.324,5.176c1.995,7.387,7.764,14.126,12.563,19.9,4.152,4.96,8.519,9.759,12.994,14.4,5.446,5.715,10.783,11.538,16.552,16.93,3.073,2.858,5.985,5.985,9.274,8.573,10.406,8.087,24.263-2.48,34.076-6.632l2.264-.97a24,24,0,0,0,6.147-3.72,7.335,7.335,0,0,0,.647-.647,1.027,1.027,0,0,0,.27-.539c.27-.539.593-1.024.809-1.564a17.815,17.815,0,0,0,1.078-3.4,46.231,46.231,0,0,0,.755-7.225,7.017,7.017,0,0,0-.431-3.5,3.052,3.052,0,0,0-2.1-1.618,14.636,14.636,0,0,0-3.127-.647,2.672,2.672,0,0,0,.7-.162,7.189,7.189,0,0,0,1.779-.7c.323-.216.647-.485.97-.7a12.2,12.2,0,0,0,1.4-.863A5.863,5.863,0,0,0,314.115,398.93Z"
          transform="translate(-216.002 -321.738)" fill="url(#linear-gradient)"/>
    <path id="Path_18" data-name="Path 18"
          d="M236.124,370.084a5.208,5.208,0,0,0,1.768,3.811,5.871,5.871,0,0,0,.911.7,16.98,16.98,0,0,0,2.519,1.449,2.174,2.174,0,0,1,.482.268c1.125.59,2.2,1.127,3.269,1.664a.322.322,0,0,1-.214-.054c-1.769-.161-3.644-.43-5.413-.43.429.644.857,1.288,1.233,1.879,1.286,2.039,2.679,4.025,4.019,5.957.911,1.288,1.822,2.576,2.787,3.811.911,1.234,2.036,2.308,3.055,3.435a4.82,4.82,0,0,0,.965.859,5.1,5.1,0,0,0,2.036.376h.054a58.73,58.73,0,0,1,8.682.859c-.59.107-1.179.268-1.715.376-1.608.322-3.215.7-4.877,1.074a2.6,2.6,0,0,0-1.554.7c.429.537.857,1.02,1.286,1.556a33.283,33.283,0,0,0,3.966,3.811,4.61,4.61,0,0,1,.965,1.073,16.181,16.181,0,0,0,2.68,2.737c4.77,4.508,9.646,8.909,14.2,13.632a21.739,21.739,0,0,0,3.966,3.059,16.642,16.642,0,0,0,9.164,3.113,20.033,20.033,0,0,0,8.467-2.2c8.039-3.757,20.525-7.085,24.009-16.209a11.617,11.617,0,0,0,.857-2.952l.322-3.7a3.038,3.038,0,0,0-.107-1.4c-.375-.859-1.5-1.127-2.519-1.234-5.2-.59-10.45-1.127-15.648-1.717h-.054c-.7-.054-1.34-.161-2.036-.215,5.627-.966,11.2-1.932,16.827-2.9a11.808,11.808,0,0,0,1.34-.268,3.361,3.361,0,0,0,1.822-.966,4.453,4.453,0,0,0,.965-3.381c-.054-.966-.161-1.879-.161-2.9V379.1c0-1.718-.054-3.435-.107-5.1a26.553,26.553,0,0,1-.054-4.616,8.359,8.359,0,0,1,.268-1.234,6.771,6.771,0,0,0,.214-1.5,7.938,7.938,0,0,0-.054-1.127c-.107-2.9-.482-5.85-.75-8.695a3.143,3.143,0,0,0-.75-2.2,3.064,3.064,0,0,0-2.251-.59c-2.626-.054-5.252-.054-7.878-.054h-.965c-2.894,0-5.788.054-8.628.054,2.84-.376,5.627-.859,8.467-1.4a24.838,24.838,0,0,0,5.573-1.342,5.4,5.4,0,0,1,1.822-.483c.536-.054,1.018-.054,1.554-.107h.161c.375,0,.965,0,1.179-.268a.579.579,0,0,0,.107-.429c.107-1.878.214-3.7.214-5.582v-1.61a20.212,20.212,0,0,0-1.34-8.211c-.965-2.147-2.894-3.328-4.716-4.669a24,24,0,0,0-2.519-1.5c-5.52-2.844-11.308-5.9-17.578-6.655-8.9-1.073-14.362,4.294-21.222,9.017-4.877,3.328-9.7,6.709-14.362,10.3-.161.108-.322.268-.482.376a14,14,0,0,0-3.43,3.22,13.192,13.192,0,0,1-2.144,2.093,26.281,26.281,0,0,0-2.358,2.522.77.77,0,0,0-.268.59c0,.376.482.59.857.644l1.608.322c3,.59,6.056,1.234,9.057,1.825h-2.947a54.62,54.62,0,0,0-9.378.322,22.226,22.226,0,0,0-4.073.912,10,10,0,0,0-1.715.805,2.865,2.865,0,0,0-.7.7,29.943,29.943,0,0,1-1.983,2.576c-2.572,3.059-5.948,6.011-6.752,10.09C236.124,368.8,236.07,369.44,236.124,370.084Z"
          transform="translate(-236.09 -321.642)" fill="url(#linear-gradient-2)"/>
    <path id="Path_19" data-name="Path 19"
          d="M322.146,361.912v-1.7c-4.5.057-9.111.623-13.613.623-8.361.057-16.614-.736-24.974-1.189-7.932-.453-15.81-.906-23.742-.85a14.338,14.338,0,0,0-3.43,3.4,13.571,13.571,0,0,1-2.144,2.209,27.131,27.131,0,0,0-2.358,2.662.831.831,0,0,0-.268.623c0,.4.482.623.857.68l1.608.34c3,.623,6.056,1.3,9.057,1.926h-2.948a51.791,51.791,0,0,0-9.379.34,21.232,21.232,0,0,0-4.073.963c2.733.17,5.627,0,8.789-.057,9.325-.227,18.65.17,27.976.68a199.011,199.011,0,0,0,27.868-.34c.429-.057.8-.057,1.233-.113h-.965c-2.894,0-5.788.057-8.628.057,2.84-.4,5.627-.906,8.468-1.473a23.759,23.759,0,0,0,5.574-1.416,5.175,5.175,0,0,1,1.822-.51c.536-.057,1.018-.057,1.554-.113h.161c.375,0,.965,0,1.179-.283a.636.636,0,0,0,.107-.453A57.591,57.591,0,0,0,322.146,361.912ZM272.626,385.3c17.311,0,34.568,1.359,51.771-1.076a8.827,8.827,0,0,1,.054,1.19,7.522,7.522,0,0,1-.214,1.586c-15.274,5.777-31.727,6.684-47.859,7.42-5.681.283-11.362.623-16.989,1.189,7.5.17,15.006.4,22.563.736,12.487.51,24.975.736,37.408,1.756.7.057,2.519.17,4.77.453.054,2.322.054,4.7,0,7.024,0,1.076.107,2.039.161,3.058a4.955,4.955,0,0,1-.965,3.568,3.309,3.309,0,0,1-1.822,1.02,11.268,11.268,0,0,1-1.34.283c-5.627,1.02-11.2,2.039-16.828,3.059.7.057,1.34.17,2.037.227-6.806.623-13.613.906-20.312,1.246-10.075.566-20.044.85-30.066.736-.429-.51-.857-1.076-1.286-1.643a2.545,2.545,0,0,1,1.554-.736c1.608-.34,3.216-.736,4.877-1.133.59-.113,1.126-.283,1.715-.4a49.639,49.639,0,0,0-8.682-.906h-.054a3.579,3.579,0,0,1-2.036-.4,3.773,3.773,0,0,1-.965-.906c-1.018-1.19-2.144-2.322-3.055-3.625-.965-1.3-1.876-2.662-2.787-4.022q-2.09-3.144-4.02-6.287c-.429-.68-.857-1.359-1.233-1.982,1.769,0,3.644.283,5.413.453.054,0,.161.057.214.057-1.125-.623-2.2-1.19-3.269-1.756a2.15,2.15,0,0,1-.482-.283,16.772,16.772,0,0,1-2.519-1.529,10.382,10.382,0,0,1-.911-.736,5.728,5.728,0,0,1-1.769-4.021C247.812,386.041,260.835,385.3,272.626,385.3Z"
          transform="translate(-235.552 -339.772)" fill="url(#linear-gradient-3)"/>
    <path id="Path_20" data-name="Path 20"
          d="M237.44,460.326a37.482,37.482,0,0,0,5.551,5.664,4.872,4.872,0,0,1,1.02,1.133,17.074,17.074,0,0,0,2.832,2.889c5.041,4.758,10.2,9.4,15.01,14.387a22.984,22.984,0,0,0,4.191,3.229,17.61,17.61,0,0,0,9.686,3.285,21.2,21.2,0,0,0,8.949-2.322c8.5-3.965,21.694-7.477,25.375-17.106a12.248,12.248,0,0,0,.906-3.115l.34-3.908a3.2,3.2,0,0,0-.113-1.473c-.4-.906-1.586-1.189-2.662-1.3-5.551-.623-11.045-1.189-16.6-1.813a29.871,29.871,0,0,0,6.23,2.1,10.558,10.558,0,0,0,2.266.4,20.941,20.941,0,0,1,2.719.4c1.926.283,3.795.623,5.721.906.227.057.453.057.566.283a.681.681,0,0,1,.113.453,20.962,20.962,0,0,1-1.756,7.873,9.054,9.054,0,0,1-1.3,2.266,10.371,10.371,0,0,1-2.436,2.039,34.154,34.154,0,0,1-5.494,3.4c-.736.34-1.473.283-2.209.623-1.019.51-1.982,1.02-2.945,1.473a109.7,109.7,0,0,1-12.4,4.758l-1.02.34a14.738,14.738,0,0,1-5.891.566c-6.287-.623-11.272-4.815-15.86-8.836-1.7-1.529-3.342-3.059-4.984-4.645-4.475-4.248-8.893-8.5-13.311-12.744a14.959,14.959,0,0,1,4.361-3.115h-.113c-1.7.34-3.4.736-5.154,1.133A4.635,4.635,0,0,0,237.44,460.326Z"
          transform="translate(-223.422 -386.704)" fill="#e27e39"/>
    <path id="Path_21" data-name="Path 21"
          d="M247.345,385.768a31.551,31.551,0,0,1,.17,7.307,2.451,2.451,0,0,1-2.662,2.662c-2.039.283-4.078.623-6.117.906a21.721,21.721,0,0,1,5.721.736,5.392,5.392,0,0,1,2.549,1.246c1.02,1.076,1.133,2.719,1.189,4.192a92.825,92.825,0,0,1-2.1,20.561,3.554,3.554,0,0,0,1.926-1.02,4.7,4.7,0,0,0,1.02-3.568c-.057-1.02-.17-1.982-.17-3.059.057-4.135,0-8.27-.113-12.4a27.982,27.982,0,0,1-.057-4.871,17.012,17.012,0,0,0,.453-2.889c-.057-3.455-.566-6.91-.85-10.365a3.314,3.314,0,0,0-.793-2.322,3.243,3.243,0,0,0-2.379-.623c-3.115-.057-6.231-.057-9.346-.057A49.581,49.581,0,0,1,247.345,385.768Z"
          transform="translate(-160.316 -350.408)" fill="#e27e39"/>
    <path id="Path_22" data-name="Path 22"
          d="M239.97,351.612c0,.4.51.623.906.68l1.7.34c-.623-1.359.623-3.115,1.813-4.192,8.27-7.533,17.672-13.707,27.074-19.881a33.5,33.5,0,0,1,6.967-3.852c2.492-.906,4.7-1.473,7.25-.736a106.621,106.621,0,0,1,18.8,7.25c2.266,1.133,4.588,2.379,6.061,4.418,1.756,2.379,2.152,5.551,2.322,8.553a82.64,82.64,0,0,1-.057,8.383c.4,0,1.02,0,1.246-.283a.61.61,0,0,0,.113-.453c.113-1.982.227-3.908.227-5.891.057-3.455.057-7.193-1.416-10.422-1.02-2.266-3.059-3.512-4.984-4.928a25.364,25.364,0,0,0-2.662-1.586c-5.834-3-11.951-6.231-18.578-7.024-9.4-1.133-15.18,4.531-22.43,9.516-5.154,3.512-10.252,7.08-15.18,10.875a17.653,17.653,0,0,0-4.135,3.795,13.935,13.935,0,0,1-2.266,2.209,27.714,27.714,0,0,0-2.492,2.662A.7.7,0,0,0,239.97,351.612Z"
          transform="translate(-227.934 -321.729)" fill="#e27e39"/>
    <path id="Path_23" data-name="Path 23"
          d="M356.866,401.877a6.192,6.192,0,0,0,.963.736c-.283-1.756-1.02-3.512-.85-5.324a9.7,9.7,0,0,1,1.586-3.8l3.4-5.777a11.505,11.505,0,0,1,2.662-3.455,12.2,12.2,0,0,1,3.738-1.586c2.209-.623,4.418-1.133,6.684-1.586,1.982-.4,4.021-.736,6-1.076.4-.057.4-.227.057-.453a57.819,57.819,0,0,0-9.912.34c-1.982.283-4.418.68-6.117,1.813a3.023,3.023,0,0,0-.736.736,31.644,31.644,0,0,1-2.1,2.719c-2.719,3.229-6.287,6.344-7.137,10.648C354.713,398.139,355.053,400.234,356.866,401.877Z"
          transform="translate(-354.962 -348.683)" fill="#e27e39"/>
    <path id="Path_24" data-name="Path 24"
          d="M368.9,425.8q2.719,4.248,5.608,8.326c.963,1.359,1.926,2.719,2.945,4.022.963,1.3,2.152,2.435,3.229,3.625a5.088,5.088,0,0,0,1.02.906,5.393,5.393,0,0,0,2.152.4h.057c-1.246-1.813-3.172-3-4.531-4.7-1.7-1.982-2.832-4.361-4.361-6.514-1.076-1.529-4.3-4.135-1.02-5.268a2.959,2.959,0,0,1,1.19-.227l-.51-.17C372.752,426.083,370.769,425.8,368.9,425.8Z"
          transform="translate(-365.41 -370.115)" fill="#e27e39"/>
    <g id="Group_3" data-name="Group 3" transform="translate(14.747 14.931)">
        <path id="Path_25" data-name="Path 25"
              d="M320.365,415.518a6.229,6.229,0,0,1-1.7,1.982c-6.74,5.1-16.2,11.5-24.866,7.307-4.645-2.266-8.043-6.287-11.328-10.2-2.605-3.115-5.211-6.23-7.817-9.289-2.832-3.4-5.721-6.8-8.553-10.252-1.133-1.359-2.606-2.719-3.285-4.361-1.246-2.945-3.285-5.834-2.605-9.119,1.133-5.551,9.572-11.5,13.651-15.067,5.211-4.588,10.875-8.723,16.369-13.028,4.588-3.568,7.023-6.514,13.254-5.154a36.092,36.092,0,0,1,8.723,3.342,32.742,32.742,0,0,1,7.08,4.7c5.268,4.871,3.795,16.709,4.021,23.166a162.041,162.041,0,0,1-1.076,26.225,13.85,13.85,0,0,1-.283,2.209C321.611,410.363,321.611,413.252,320.365,415.518Z"
              transform="translate(-260.077 -348.003)" fill="url(#linear-gradient-4)"/>
    </g>
</svg>
