<svg xmlns="http://www.w3.org/2000/svg" xmlns:xlink="http://www.w3.org/1999/xlink" width="100" height="114.234"
     viewBox="0 0 100 114.234">
    <defs>
        <linearGradient id="linear-gradient" x1="0.71" y1="-0.156" x2="0.587" y2="0.161"
                        gradientUnits="objectBoundingBox">
            <stop offset="0" stop-color="#cf5c2a"/>
            <stop offset="1" stop-color="#5a173e"/>
        </linearGradient>
        <linearGradient id="linear-gradient-2" x1="0.667" y1="-0.087" x2="-0.216" y2="2.213"
                        xlink:href="#linear-gradient"/>
        <linearGradient id="linear-gradient-3" x1="0.548" y1="0.114" x2="-0.144" y2="3.179"
                        xlink:href="#linear-gradient"/>
        <linearGradient id="linear-gradient-4" x1="0.1" y1="1.476" x2="0.175" y2="0.779" xlink:href="#linear-gradient"/>
        <linearGradient id="linear-gradient-5" x1="0.179" y1="-0.07" x2="0.163" y2="0.402"
                        gradientUnits="objectBoundingBox">
            <stop offset="0" stop-color="#fdbf11"/>
            <stop offset="1" stop-color="#c1461b"/>
        </linearGradient>
        <linearGradient id="linear-gradient-6" x1="0.51" y1="1.121" x2="0.502" y2="0.56"
                        gradientUnits="objectBoundingBox">
            <stop offset="0" stop-color="#fec421"/>
            <stop offset="1" stop-color="#bc541b"/>
        </linearGradient>
        <linearGradient id="linear-gradient-7" x1="0.109" y1="1.407" x2="0.109" y2="0.192"
                        xlink:href="#linear-gradient-6"/>
        <linearGradient id="linear-gradient-8" x1="1.166" y1="-0.412" x2="0.03" y2="1.041"
                        gradientUnits="objectBoundingBox">
            <stop offset="0" stop-color="#edd753"/>
            <stop offset="1" stop-color="#030303"/>
        </linearGradient>
    </defs>
    <g id="next" transform="translate(-216.1 -321.642)">
        <path id="Path_2" data-name="Path 2"
              d="M217.987,398.934c-.054-.108-.108-.162-.162-.27a8.166,8.166,0,0,1-.755-3.774c-.054-2.534-.431-5.23-.431-7.818,0-2.642.27-5.284.162-7.926a5.81,5.81,0,0,1,.809-3.559,2.6,2.6,0,0,1,3.235-.971c-1.618-.539-3.343-1.132-4.206-2.588A126.9,126.9,0,0,1,216.1,359.3a22.753,22.753,0,0,1,.971-2.426c2.049-5.985,5.823-11.107,9-16.5a36.134,36.134,0,0,1,3.019-4.475,28.121,28.121,0,0,1,5.985-5.877,23.672,23.672,0,0,1,2.534-1.456c5.554-2.858,11.377-5.877,17.686-6.578,8.951-1.024,14.45,4.314,21.352,8.951,4.367,2.966,8.681,5.931,12.887,9.059a75.682,75.682,0,0,1,7.01,6.093,33.511,33.511,0,0,1,4.1,4.206,3.108,3.108,0,0,1,.431,2.75,1.066,1.066,0,0,0-.108.593.959.959,0,0,0,.378.431,11.059,11.059,0,0,0,2.534,1.564c.593.216,1.24.162,1.887.377,1.833.647,3.181,2.265,4.421,3.72l.162.162c1.078,1.294,2.211,2.642,3.289,3.936a7.33,7.33,0,0,1,1.456,1.941,11.17,11.17,0,0,1,.755,2.265,11.989,11.989,0,0,1-.324,5.176c-1.995,7.387-7.764,14.127-12.563,19.9-4.152,4.961-8.519,9.759-12.995,14.4-5.446,5.715-10.784,11.539-16.553,16.931-3.073,2.858-5.985,5.985-9.274,8.573-10.406,8.088-24.264-2.48-34.077-6.632l-2.265-.971a24,24,0,0,1-6.147-3.72,7.326,7.326,0,0,1-.647-.647,1.026,1.026,0,0,1-.27-.539c-.27-.539-.593-1.024-.809-1.564a17.817,17.817,0,0,1-1.078-3.4,46.245,46.245,0,0,1-.755-7.225,7.017,7.017,0,0,1,.431-3.5,3.053,3.053,0,0,1,2.1-1.618,14.623,14.623,0,0,1,3.127-.647,2.676,2.676,0,0,1-.7-.162,7.2,7.2,0,0,1-1.779-.7c-.324-.216-.647-.485-.971-.7a12.192,12.192,0,0,1-1.4-.863A5.868,5.868,0,0,1,217.987,398.934Z"
              transform="translate(0 -0.102)" fill="url(#linear-gradient)"/>
        <path id="Path_3" data-name="Path 3"
              d="M325.294,370.313a5.229,5.229,0,0,1-1.78,3.829,5.886,5.886,0,0,1-.917.7,17.062,17.062,0,0,1-2.535,1.456,2.19,2.19,0,0,0-.485.27c-1.132.593-2.211,1.132-3.289,1.672a.325.325,0,0,0,.216-.054c1.78-.162,3.667-.431,5.447-.431-.431.647-.863,1.294-1.24,1.887-1.294,2.049-2.7,4.044-4.045,5.986-.917,1.294-1.833,2.588-2.8,3.829-.917,1.24-2.049,2.319-3.074,3.451a4.845,4.845,0,0,1-.971.863,5.136,5.136,0,0,1-2.049.378h-.054a59.176,59.176,0,0,0-8.736.863c.593.108,1.186.27,1.726.377,1.618.324,3.236.7,4.907,1.078a2.624,2.624,0,0,1,1.564.7c-.431.539-.863,1.025-1.294,1.564a33.492,33.492,0,0,1-3.99,3.829,4.637,4.637,0,0,0-.971,1.078,16.26,16.26,0,0,1-2.7,2.75c-4.8,4.53-9.707,8.951-14.29,13.7a21.874,21.874,0,0,1-3.991,3.074,16.763,16.763,0,0,1-9.221,3.128,20.181,20.181,0,0,1-8.52-2.211c-8.089-3.775-20.654-7.118-24.159-16.285a11.656,11.656,0,0,1-.863-2.966l-.324-3.721a3.048,3.048,0,0,1,.108-1.4c.378-.863,1.51-1.132,2.535-1.24,5.231-.593,10.516-1.132,15.746-1.726h.054c.7-.054,1.348-.162,2.049-.216-5.662-.971-11.271-1.941-16.933-2.912a11.918,11.918,0,0,1-1.348-.27,3.383,3.383,0,0,1-1.833-.971,4.47,4.47,0,0,1-.971-3.4c.054-.971.162-1.887.162-2.912v-6.687c0-1.726.054-3.451.108-5.123a26.639,26.639,0,0,0,.054-4.637,8.373,8.373,0,0,0-.27-1.24,6.8,6.8,0,0,1-.216-1.51,7.96,7.96,0,0,1,.054-1.132c.108-2.912.485-5.878.755-8.736a3.156,3.156,0,0,1,.755-2.211,3.087,3.087,0,0,1,2.265-.593c2.642-.054,5.285-.054,7.927-.054h.971c2.912,0,5.824.054,8.682.054-2.858-.377-5.662-.863-8.52-1.4a25.023,25.023,0,0,1-5.608-1.348,5.439,5.439,0,0,0-1.834-.485c-.539-.054-1.025-.054-1.564-.108h-.162c-.378,0-.971,0-1.186-.27a.581.581,0,0,1-.108-.431c-.108-1.887-.216-3.721-.216-5.608v-1.618a20.28,20.28,0,0,1,1.348-8.25c.971-2.157,2.912-3.343,4.745-4.691a24.161,24.161,0,0,1,2.535-1.51c5.554-2.858,11.378-5.932,17.688-6.687,8.952-1.078,14.452,4.314,21.355,9.059,4.907,3.343,9.761,6.741,14.452,10.354.162.108.324.27.485.377a14.079,14.079,0,0,1,3.451,3.236,13.266,13.266,0,0,0,2.157,2.1,26.4,26.4,0,0,1,2.373,2.534.773.773,0,0,1,.27.593c0,.377-.485.593-.863.647l-1.618.324c-3.02.593-6.094,1.24-9.114,1.833h2.966a55.064,55.064,0,0,1,9.437.323,22.4,22.4,0,0,1,4.1.917,10.072,10.072,0,0,1,1.726.809,2.884,2.884,0,0,1,.7.7,30.1,30.1,0,0,0,2,2.588c2.588,3.074,5.986,6.04,6.795,10.138C325.294,369.019,325.348,369.666,325.294,370.313Z"
              transform="translate(-9.227 0)" fill="url(#linear-gradient-2)"/>
        <path id="Path_4" data-name="Path 4"
              d="M238.019,361.759v-1.616c4.53.054,9.167.592,13.7.592,8.413.054,16.717-.7,25.13-1.131,7.981-.431,15.908-.862,23.889-.808a14.074,14.074,0,0,1,3.451,3.232,13.26,13.26,0,0,0,2.157,2.1,26.368,26.368,0,0,1,2.373,2.532.771.771,0,0,1,.27.593c0,.377-.485.593-.863.646l-1.618.323c-3.02.593-6.094,1.239-9.114,1.831h2.966a55.122,55.122,0,0,1,9.437.323,22.408,22.408,0,0,1,4.1.916c-2.75.162-5.662,0-8.844-.054-9.383-.216-18.766.162-28.149.646a211.833,211.833,0,0,1-28.042-.323c-.431-.054-.809-.054-1.24-.108h.971c2.912,0,5.824.054,8.682.054-2.858-.377-5.662-.862-8.52-1.4a25.045,25.045,0,0,1-5.608-1.347,5.441,5.441,0,0,0-1.834-.485c-.539-.054-1.025-.054-1.564-.108h-.162c-.378,0-.971,0-1.186-.269a.58.58,0,0,1-.108-.431A51.778,51.778,0,0,1,238.019,361.759ZM287.847,384c-17.418,0-34.782,1.293-52.093-1.023a7.95,7.95,0,0,0-.054,1.131,6.784,6.784,0,0,0,.216,1.508c15.369,5.494,31.924,6.356,48.156,7.056,5.716.269,11.432.592,17.095,1.131-7.55.162-15.1.377-22.7.7-12.565.485-25.13.7-37.64,1.67-.7.054-2.535.162-4.8.431-.054,2.208-.054,4.471,0,6.679,0,1.023-.108,1.939-.162,2.909a4.526,4.526,0,0,0,.971,3.393,3.385,3.385,0,0,0,1.834.97,11.93,11.93,0,0,0,1.348.269c5.662.97,11.271,1.939,16.933,2.909-.7.054-1.348.162-2.049.215,6.849.593,13.7.862,20.438,1.185,10.138.539,20.168.808,30.253.7.431-.485.863-1.023,1.294-1.562a2.624,2.624,0,0,0-1.564-.7c-1.618-.323-3.236-.7-4.907-1.077-.593-.108-1.132-.269-1.726-.377a52.762,52.762,0,0,1,8.736-.862h.054a3.78,3.78,0,0,0,2.049-.377,3.717,3.717,0,0,0,.971-.862c1.025-1.131,2.157-2.208,3.074-3.447.971-1.239,1.887-2.532,2.8-3.824q2.1-2.99,4.044-5.979c.431-.646.863-1.293,1.24-1.885-1.78,0-3.667.269-5.447.431-.054,0-.162.054-.216.054,1.133-.593,2.211-1.131,3.29-1.67a2.188,2.188,0,0,0,.485-.269,17.06,17.06,0,0,0,2.534-1.454,10.373,10.373,0,0,0,.917-.7,5.313,5.313,0,0,0,1.78-3.824C312.814,384.705,299.71,384,287.847,384Z"
              transform="translate(-9.042 -17.098)" fill="url(#linear-gradient-3)"/>
        <path id="Path_5" data-name="Path 5"
              d="M307.712,460.231a35.667,35.667,0,0,1-5.279,5.386,4.628,4.628,0,0,0-.97,1.077,16.249,16.249,0,0,1-2.693,2.747c-4.794,4.525-9.7,8.942-14.274,13.682a21.852,21.852,0,0,1-3.986,3.07,16.745,16.745,0,0,1-9.211,3.124,20.158,20.158,0,0,1-8.511-2.208c-8.08-3.771-20.63-7.11-24.132-16.267a11.648,11.648,0,0,1-.862-2.963l-.323-3.717a3.043,3.043,0,0,1,.108-1.4c.377-.862,1.508-1.131,2.532-1.239,5.279-.593,10.5-1.131,15.782-1.724a28.4,28.4,0,0,1-5.925,1.993,10.055,10.055,0,0,1-2.155.377,19.928,19.928,0,0,0-2.586.377c-1.831.269-3.609.593-5.44.862-.215.054-.431.054-.539.269a.648.648,0,0,0-.108.431,19.935,19.935,0,0,0,1.67,7.487,8.6,8.6,0,0,0,1.239,2.155,9.862,9.862,0,0,0,2.316,1.939,32.468,32.468,0,0,0,5.225,3.232c.7.323,1.4.269,2.1.593.97.485,1.885.97,2.8,1.4a104.332,104.332,0,0,0,11.8,4.525l.97.323a14.018,14.018,0,0,0,5.6.539c5.979-.593,10.719-4.578,15.082-8.4,1.616-1.454,3.178-2.909,4.74-4.417,4.255-4.04,8.457-8.08,12.658-12.12a14.223,14.223,0,0,0-4.148-2.963h.108c1.616.323,3.232.7,4.9,1.077A4.409,4.409,0,0,1,307.712,460.231Z"
              transform="translate(-9.845 -62.978)" fill="#e27e39"/>
        <path id="Path_6" data-name="Path 6"
              d="M237.519,385.593a30.005,30.005,0,0,0-.162,6.949,2.331,2.331,0,0,0,2.532,2.532c1.939.269,3.878.593,5.817.862a20.653,20.653,0,0,0-5.44.7,5.126,5.126,0,0,0-2.424,1.185c-.97,1.023-1.077,2.585-1.131,3.986A88.277,88.277,0,0,0,238.7,421.36a3.378,3.378,0,0,1-1.831-.969A4.465,4.465,0,0,1,235.9,417c.054-.97.162-1.885.162-2.909-.054-3.932,0-7.864.108-11.8a26.619,26.619,0,0,0,.054-4.632,16.179,16.179,0,0,1-.431-2.747c.054-3.286.539-6.572.808-9.857a3.152,3.152,0,0,1,.754-2.208,3.084,3.084,0,0,1,2.262-.592c2.963-.054,5.925-.054,8.888-.054A47.154,47.154,0,0,0,237.519,385.593Z"
              transform="translate(-9.084 -27.888)" fill="#e27e39"/>
        <path id="Path_7" data-name="Path 7"
              d="M310.765,350.152c0,.377-.485.592-.862.646l-1.616.323c.593-1.293-.593-2.963-1.724-3.986-7.864-7.164-16.806-13.035-25.747-18.907a31.867,31.867,0,0,0-6.625-3.663c-2.37-.862-4.471-1.4-6.895-.7a101.389,101.389,0,0,0-17.883,6.895c-2.155,1.077-4.363,2.262-5.764,4.2-1.67,2.262-2.047,5.279-2.208,8.134a78.617,78.617,0,0,0,.054,7.972c-.377,0-.97,0-1.185-.269a.58.58,0,0,1-.108-.431c-.108-1.885-.215-3.717-.215-5.6-.054-3.286-.054-6.841,1.347-9.911.97-2.155,2.909-3.34,4.74-4.686a24.135,24.135,0,0,1,2.532-1.508c5.548-2.855,11.365-5.925,17.668-6.679,8.942-1.077,14.436,4.309,21.331,9.049,4.9,3.34,9.75,6.733,14.436,10.342a16.787,16.787,0,0,1,3.932,3.609,13.259,13.259,0,0,0,2.155,2.1,26.319,26.319,0,0,1,2.37,2.532A.663.663,0,0,1,310.765,350.152Z"
              transform="translate(-11.012 -0.092)" fill="#e27e39"/>
        <path id="Path_8" data-name="Path 8"
              d="M378.252,400.781a5.878,5.878,0,0,1-.916.7c.269-1.67.97-3.34.808-5.063a9.221,9.221,0,0,0-1.508-3.609l-3.232-5.494a10.945,10.945,0,0,0-2.532-3.286,11.609,11.609,0,0,0-3.555-1.508c-2.1-.593-4.2-1.077-6.356-1.508-1.885-.377-3.824-.7-5.71-1.023-.377-.054-.377-.215-.054-.431a55,55,0,0,1,9.426.323,14.578,14.578,0,0,1,5.817,1.724,2.881,2.881,0,0,1,.7.7,30.079,30.079,0,0,0,1.993,2.586c2.585,3.07,5.979,6.033,6.787,10.127A5.874,5.874,0,0,1,378.252,400.781Z"
              transform="translate(-63.963 -26.658)" fill="#e27e39"/>
        <path id="Path_9" data-name="Path 9"
              d="M383.174,425.8q-2.586,4.04-5.333,7.918c-.916,1.293-1.831,2.586-2.8,3.824-.916,1.239-2.047,2.316-3.07,3.447a4.843,4.843,0,0,1-.97.862,5.132,5.132,0,0,1-2.047.377H368.9c1.185-1.724,3.016-2.855,4.309-4.471,1.616-1.885,2.693-4.148,4.148-6.194,1.023-1.454,4.094-3.932.97-5.01a2.813,2.813,0,0,0-1.131-.215l.485-.162C379.511,426.069,381.4,425.8,383.174,425.8Z"
              transform="translate(-70.393 -47.987)" fill="#e27e39"/>
        <g id="Group_2" data-name="Group 2" transform="translate(238.945 335.841)">
            <path id="Path_10" data-name="Path 10"
                  d="M319.752,390.237a15.452,15.452,0,0,1-.916,8.241,16.668,16.668,0,0,1-1.939,3.447,4.015,4.015,0,0,0-.377.646,12.7,12.7,0,0,1-1.616,2.747c-1.347,1.993-2.8,3.986-4.309,5.871a92.146,92.146,0,0,1-9.911,10.611c-.592.539-1.239,1.077-1.831,1.616a6.636,6.636,0,0,1,5.71-.323,43.722,43.722,0,0,0-4.632.754,17.231,17.231,0,0,0-2.262.539c-.108.054-.215.054-.323.162a7.973,7.973,0,0,0-.7,1.131,19.667,19.667,0,0,1-6.895,6.248,20.119,20.119,0,0,1-7.649,2.37,19.767,19.767,0,0,1-16.59-6.949c-2.8-.862-3.932-2.855-5.063-5.548a27.121,27.121,0,0,1-1.616-8.565c-.431-6.518-.431-13.035-.431-19.5,0-7.433,0-15.082,2.37-22.138,2.639,6.733,8.942,11.473,15.782,13.9,6.841,2.37,14.166,2.693,21.384,2.855C305.209,388.406,312.75,388.46,319.752,390.237Z"
                  transform="translate(-258.4 -358.889)" fill="#e27e39"/>
            <path id="Path_11" data-name="Path 11"
                  d="M263,412.208a5.924,5.924,0,0,0,1.616,1.885c6.41,4.848,15.405,10.935,23.647,6.949,4.417-2.155,7.649-5.979,10.773-9.7,2.478-2.963,4.956-5.925,7.433-8.834,2.693-3.232,5.44-6.464,8.134-9.75,1.077-1.293,2.478-2.586,3.124-4.148,1.185-2.8,3.124-5.548,2.478-8.672-1.077-5.279-9.1-10.935-12.981-14.328-4.956-4.363-10.342-8.3-15.567-12.389-4.363-3.393-6.679-6.194-12.6-4.9a34.326,34.326,0,0,0-8.3,3.178,31.145,31.145,0,0,0-6.733,4.471c-5.009,4.632-3.609,15.89-3.824,22.031a154.1,154.1,0,0,0,1.023,24.94,13.161,13.161,0,0,0,.269,2.1C261.813,407.307,261.813,410.054,263,412.208Z"
                  transform="translate(-259.173 -348.003)" fill="url(#linear-gradient-4)"/>
            <path id="Path_12" data-name="Path 12"
                  d="M267.1,381.278c0,1.831.054,3.609.108,5.44.054,3.609.269,7.272.485,10.881.215,2.693.431,5.44.7,8.134a25.585,25.585,0,0,0,1.4,7.218c1.185,2.855,4.74,4.471,7.326,5.925a18.152,18.152,0,0,0,8.726,2.8,9.026,9.026,0,0,0,3.986-.916c3.717-1.831,6.625-5.279,9.48-8.672,2.532-3.016,5.063-6.087,7.6-9.1,4.04-4.794,8.672-9,11.419-14.759.808-1.67,1.562-3.178,1.293-4.309a8.177,8.177,0,0,0-1.508-3.178c-2.316-3.286-6.625-6.033-9.157-8.187-5.925-4.956-12.066-9.588-18.1-14.382-2.639-2.155-3.878-3.07-5.817-3.07a9.226,9.226,0,0,0-1.939.216,30.622,30.622,0,0,0-13.251,6.679c-2.262,2.1-2.424,6.248-2.532,9.1C267.154,374.545,267.1,377.939,267.1,381.278Z"
                  transform="translate(-262.414 -351.277)" fill="url(#linear-gradient-5)"/>
            <path id="Path_13" data-name="Path 13"
                  d="M267.1,381.371c0,1.831.054,3.609.108,5.44a130.341,130.341,0,0,0,4.9,13.251l1.077-22.893c.162-3.124.323-6.3,1.454-9.157,1.185-2.909,3.5-5.494,6.571-6.087,3.717-.7,7.272,1.616,10.342,3.824q10.988,7.837,21.869,15.675c1.293.916,3.232,1.778,4.255.593a1.5,1.5,0,0,0,.377-.7,1.052,1.052,0,0,0,.054-.377c-2.316-3.286-6.625-6.033-9.157-8.187-5.925-4.956-12.066-9.588-18.1-14.382-2.639-2.155-3.878-3.07-5.817-3.07a9.222,9.222,0,0,0-1.939.215,30.622,30.622,0,0,0-13.251,6.679c-2.262,2.1-2.424,6.248-2.532,9.1C267.154,374.637,267.1,378.031,267.1,381.371Z"
                  transform="translate(-262.414 -351.369)" fill="#fdd768"/>
            <path id="Path_14" data-name="Path 14"
                  d="M319.062,388.016c-.161.485-.646,1.454-.916,2.155-1.777,3.717-4.632,6.841-7.541,10.127-.7.808-1.454,1.562-2.155,2.37-.431.485-.862.97-1.239,1.454l-7.595,9.1c-.377.485-.754.916-1.185,1.4-1.993,2.316-4.04,4.579-6.3,5.871-.215.162-.485.269-.7.431a5.374,5.374,0,0,1-2.262.539c-2.424,0-5.063-1.293-6.841-2.316l-1.023-.539c-1.831-.97-4.094-2.208-4.632-3.5a11.588,11.588,0,0,1-.7-2.532c-.215-1.185-.323-2.424-.431-3.555-.269-2.693-.485-5.386-.646-8.026-.269-4.255-.485-8.241-.539-12.174,0-1.293-.054-2.639-.054-3.878,0-2.909.054-5.817.162-8.618,0-.431.054-.862.054-1.293v-.323c.054-1.778.215-5.171,1.239-6.087a26.584,26.584,0,0,1,11.473-5.764,8.431,8.431,0,0,1,1.077-.162c.539,0,1.185.431,3.394,2.208.485.431,1.023.808,1.508,1.239,1.4,1.077,2.747,2.155,4.148,3.232.323.269.7.539,1.023.808.162.162.323.269.485.431,3.609,2.8,7.326,5.71,10.827,8.672.7.593,1.562,1.239,2.478,1.939.323.269.646.485.97.754,1.993,1.562,4.417,3.555,5.44,5.279h0A1.047,1.047,0,0,1,319.062,388.016Z"
                  transform="translate(-265.735 -354.783)" fill="url(#linear-gradient-6)"/>
            <path id="Path_15" data-name="Path 15"
                  d="M274.3,384.692c0,1.293,0,2.586.054,3.878a6.5,6.5,0,0,0,1.508,3.393c1.4,1.454,3.609,1.724,5.6,1.885,11.419.862,23.162.593,33.989-3.07,1.4-.485,2.909-1.185,3.232-2.639a3.982,3.982,0,0,0,0-1.131h0c-1.239-2.047-4.255-4.417-6.41-6.033-.916-.7-1.778-1.347-2.478-1.939-3.663-3.124-7.595-6.141-11.312-9.049-2.262-1.724-4.471-3.5-6.679-5.279-2.208-1.831-2.855-2.208-3.393-2.208a3.752,3.752,0,0,0-1.077.162,26.585,26.585,0,0,0-11.473,5.763c-1.023.97-1.185,4.309-1.239,6.087v.323C274.354,377.959,274.3,381.3,274.3,384.692Z"
                  transform="translate(-265.735 -354.691)" fill="url(#linear-gradient-7)"/>
            <path id="Path_16" data-name="Path 16"
                  d="M314.675,384.636a1.186,1.186,0,0,0-.431.054.412.412,0,0,0-.269.108,12.2,12.2,0,0,0-5.279,3.07,7.256,7.256,0,0,0-1.777,2.478,4.3,4.3,0,0,1-.646,1.185c-.808,1.293-1.67,2.639-2.478,3.986-1.67,2.747-3.286,5.548-4.794,8.4-1.239,2.262-2.37,4.525-3.5,6.787-1.347,2.8-3.232,5.871-3.178,9.049a5.892,5.892,0,0,0,1.239,3.5c-.215.162-.485.269-.7.431a5.375,5.375,0,0,1-2.262.539c-2.424,0-5.063-1.293-6.841-2.316l-1.023-.539c-1.831-.969-4.094-2.208-4.632-3.5a11.59,11.59,0,0,1-.7-2.532,3.9,3.9,0,0,0,3.5-.485,10.411,10.411,0,0,0,2.963-3.932l11.689-22.462c2.047-3.932,4.148-8.3,3.124-12.6a5.869,5.869,0,0,0-1.67-3.232,4.922,4.922,0,0,1-1.185-1.724c-.377-.7-.7-1.4-1.077-2.1,1.4,1.077,2.747,2.155,4.148,3.232.323.269.7.539,1.023.808.161.162.323.269.485.431,3.609,2.8,7.326,5.71,10.827,8.672.7.593,1.562,1.239,2.478,1.939C313.974,384.1,314.3,384.367,314.675,384.636Z"
                  transform="translate(-267.166 -357.598)" fill="url(#linear-gradient-8)"
                  style="mix-blend-mode: screen;isolation: isolate"/>
        </g>
    </g>
</svg>
