<svg xmlns="http://www.w3.org/2000/svg" xmlns:xlink="http://www.w3.org/1999/xlink" width="296.795" height="287.709"
     viewBox="0 0 296.795 287.709">
    <defs>
        <linearGradient id="linear-gradient" x1="0.771" y1="-0.121" x2="0.65" y2="0.147"
                        gradientUnits="objectBoundingBox">
            <stop offset="0" stop-color="#cf5c2a"/>
            <stop offset="1" stop-color="#5a173e"/>
        </linearGradient>
        <linearGradient id="linear-gradient-2" x1="0.63" y1="-0.019" x2="0.163" y2="1.477"
                        xlink:href="#linear-gradient"/>
        <linearGradient id="linear-gradient-3" x1="0.592" y1="0.01" x2="0.149" y2="2.503"
                        xlink:href="#linear-gradient"/>
        <linearGradient id="linear-gradient-4" x1="0.54" y1="1.664" x2="0.512" y2="0.768"
                        xlink:href="#linear-gradient"/>
    </defs>
    <g id="star-no_lighte" data-name="star-no lighte" transform="translate(-374.8 -462)">
        <path id="Path_112" data-name="Path 112"
              d="M669.4,574.685a14.167,14.167,0,0,0-6.945-20.837,40.2,40.2,0,0,0-7.524-2.894,130.228,130.228,0,0,0-13.891-4.63c-4.052-1.158-8.1-2.315-12.155-2.315h-11a3.479,3.479,0,0,1-2.315-.579l-1.736-1.736a15.925,15.925,0,0,0-8.682-4.63,12.741,12.741,0,0,1-4.63-.579c-.579,0-1.158-.579-1.736-.579a91.01,91.01,0,0,0-13.312-2.315c0-.579-.579-.579-.579-1.158a63.1,63.1,0,0,0-3.473-6.366A91.791,91.791,0,0,0,571.01,510.44a15.038,15.038,0,0,0-9.261-5.209,14.372,14.372,0,0,0,0-9.839,23.912,23.912,0,0,0-4.052-6.367c-5.209-6.945-10.418-14.47-16.206-21.415a14.976,14.976,0,0,0-9.84-5.209H527.6a6.2,6.2,0,0,0-3.473,1.158,30.455,30.455,0,0,0-8.1,6.946,84.616,84.616,0,0,0-9.261,11c-2.894,3.473-5.209,6.945-8.1,10.418a435.154,435.154,0,0,0-28.94,43.409,342.038,342.038,0,0,0-70.034,19.679,12.657,12.657,0,0,0-2.894,1.736c-.579.579-1.736,1.158-2.315,1.736-6.946,5.209-12.733,12.733-17.364,20.258a12.673,12.673,0,0,0-1.736,11c.579,3.473,2.894,5.788,5.209,8.1s4.052,5.788,6.367,8.1a6.253,6.253,0,0,0,4.052,1.736c3.473,1.158,6.367,2.315,9.84,3.473a17.327,17.327,0,0,0-4.63,2.315c-.579.579-1.158,1.158-1.158,1.736a2.126,2.126,0,0,0,.579,1.736c4.052,7.524,9.84,15.049,15.627,21.994,5.209,5.788,10.418,11.576,15.628,16.785,0,0,0,1.736-.579,1.736a2.126,2.126,0,0,1-.579,1.736c0,1.158-.579,2.315-.579,3.473-1.158,9.261-1.736,19.1-2.894,28.361-.579,5.788.579,10.418,6.946,11-2.315-.579-4.052,1.158-5.209,2.894-4.63,8.1-2.894,19.1-1.736,28.361s8.1,16.785,17.943,13.891c27.782-7.524,53.249-16.785,74.085-28.361q32.123,16.5,74.664,27.782a14.108,14.108,0,0,0,6.946,0,15.775,15.775,0,0,0,6.945-3.473A66.554,66.554,0,0,0,615,729.8c2.894-4.052,6.945-9.261,7.524-14.47.579-6.946.579-14.47.579-21.416s0-14.47-2.315-20.836c0-.579-2.894-5.788-2.894-5.209,3.473-2.894,3.473-7.524,3.473-11.576-.579-4.63-.579-8.682-1.158-13.312-.579-1.736-.579-4.052-1.158-5.788,2.894-3.473,5.788-6.367,8.682-9.839C642.78,611.728,656.671,593.786,669.4,574.685Z"
              transform="translate(0 1.915)" fill="url(#linear-gradient)"/>
        <path id="Path_113" data-name="Path 113"
              d="M655.629,576.6a262.625,262.625,0,0,1-20.836,28.94,399.939,399.939,0,0,1-29.519,32.991c1.158,6.367,1.158,12.734,1.736,19.679v2.315c-.579,1.158-1.157,1.736-2.315,1.736-.579,0-.579.579-1.158.579a135.4,135.4,0,0,1-21.994,5.209h11c4.63,0,9.261,0,13.312,1.158,6.367,1.736,4.63,14.47,4.63,19.679h0c0,9.261,0,19.1-.579,28.361a14.069,14.069,0,0,1-17.943,12.733c-27.782-8.1-53.249-16.785-74.664-27.782-20.837,11.576-46.3,20.837-74.085,28.361a14.375,14.375,0,0,1-17.942-12.733c0-2.894-.579-5.788,0-8.682,0-1.158.579-1.736,0-2.894,0-2.315,0-5.209,1.736-7.524,2.894-3.473,7.524-3.473,11.576-2.894,9.261.579,19.1,1.736,28.361,2.315,2.315,0,4.63.579,6.946.579-8.682-1.736-17.943-4.052-26.624-5.788h0c-5.209-1.158-11-2.315-16.206-3.473a10.729,10.729,0,0,1-4.052-1.157c-.579,0-1.736-.579-1.736-1.158a1.085,1.085,0,0,1,0-1.736c0-2.315.579-4.63.579-7.524v-6.367c.579-5.209.579-9.839,1.158-15.049q.868-6.945,1.736-13.891c0-1.158.579-2.894.579-4.052,0,0-1.158-1.158-1.158-1.736l-1.158-1.158-2.894-2.894c-4.052-4.052-7.524-8.682-11.576-13.312s-7.524-9.261-11.576-13.312h0a5,5,0,0,1-1.736-3.473c6.367,0,12.734.579,19.679.579h5.788c-.579,0-1.158-.579-1.736-.579-6.946-2.315-13.891-4.052-20.836-5.788h-1.158c-2.894-.579-5.788-1.158-8.1-2.894a6.971,6.971,0,0,1-2.894-2.894l-1.736-3.473c-2.894-4.052-5.788-8.1-8.1-12.155a13.727,13.727,0,0,1,6.946-20.836,356.085,356.085,0,0,1,76.4-20.837v-.579c5.209-9.84,10.418-19.679,16.206-28.94,8.1-13.312,16.785-26.046,26.625-37.043,5.788-6.945,16.785-6.945,21.994,0,2.315,3.473,5.209,6.367,7.524,9.84a25.7,25.7,0,0,1,4.63,6.367c.579,1.157.579,1.736,1.158,2.894,1.736,2.894,4.052,5.788,5.788,8.682-1.157,1.158-2.894,2.315-4.052,3.473a48.273,48.273,0,0,1-6.945,4.63,3.007,3.007,0,0,1-2.315,1.157.567.567,0,0,0-.579.579l6.946-1.736h0a50.987,50.987,0,0,1,9.839-1.157h1.736c.579,0,.579.579,1.157.579h0a50.629,50.629,0,0,0,4.63,5.788,50.9,50.9,0,0,1,3.473,5.788c2.315,4.052,5.209,8.682,7.524,12.734a12.663,12.663,0,0,0,1.736,2.894c0,.579,1.158,2.894,1.736,2.894a145.467,145.467,0,0,1,15.627,2.315c1.157,0,1.736.579,2.894,1.158a8.231,8.231,0,0,1-3.473,1.158,116.631,116.631,0,0,1-13.312,4.052c-1.157,0-1.736.579-2.894.579h1.157a152.5,152.5,0,0,1,16.206-1.157c8.1-.579,16.785-1.158,24.888,0l8.682,1.736A32.64,32.64,0,0,1,629,544.767c4.63,1.736,9.261,2.894,13.312,4.63,2.315.579,4.052,1.736,6.367,2.315C657.366,558.658,660.26,569.076,655.629,576.6Z"
              transform="translate(13.775 0)" fill="url(#linear-gradient-2)"/>
        <path id="Path_114" data-name="Path 114"
              d="M593.537,508.758c-32.991,7.524-72.349,1.158-104.761-2.894-15.049-1.736-30.1-4.052-45.146-6.367,5.209-9.839,10.418-19.679,16.206-28.939,11,0,21.415-.579,32.412-.579,8.1,0,16.206-.579,24.888-.579h16.785a50.622,50.622,0,0,0,4.63,5.788,50.9,50.9,0,0,1,3.473,5.788c2.315,4.052,5.209,8.682,7.524,12.733a12.658,12.658,0,0,0,1.736,2.894c0,.579,1.158,2.894,1.736,2.894a145.465,145.465,0,0,1,15.628,2.315c1.157,0,1.736.578,2.894,1.157a8.227,8.227,0,0,1-3.473,1.158,116.713,116.713,0,0,1-13.312,4.052c-1.158,0-1.736.579-2.894.579h1.157a152.507,152.507,0,0,1,16.206-1.158C576.752,508.179,585.434,507.6,593.537,508.758Zm-6.945,125.6c-4.052-1.157-8.682-1.157-13.312-1.157h-11a151.422,151.422,0,0,0,21.994-5.209c.579,0,.579,0,1.157-.579a7.994,7.994,0,0,0,2.315-1.736v-2.315c-.579-6.367-.579-13.312-1.736-19.679a399.936,399.936,0,0,0,29.518-32.991H595.274c-27.2-.579-53.827-2.894-81.031-4.052-36.464-1.158-74.085-1.736-110.549,2.315h-2.315c-6.367.579-12.734,1.736-19.679,2.894,4.052,4.052,7.524,8.682,11.576,13.312,38.779,4.052,78.716,4.052,117.495,4.63,16.785.579,33.57.579,50.934.579-11,1.736-21.994,3.473-32.991,4.63-28.361,4.052-57.3,6.945-86.24,9.839-11,1.157-21.994,1.736-32.991,2.894-.579,4.63-1.736,9.261-1.736,13.891a131.673,131.673,0,0,0-1.158,15.049v6.367c0,2.315-.579,4.63-.579,7.524V652.3c.579.579,1.158.579,1.736,1.158,1.158.579,2.894.579,4.052,1.158,5.209,1.157,11,2.315,16.206,3.473h0c7.524.579,15.049.579,22.573,1.158,28.361,1.736,57.3.579,85.661-1.158,18.521-1.158,36.464-2.315,54.985-4.052C591.222,648.825,592.959,636.092,586.592,634.355Z"
              transform="translate(33.037 35.431)" fill="url(#linear-gradient-3)"/>
        <path id="Path_115" data-name="Path 115"
              d="M546.438,495.291c-1.158,1.157-2.894,2.315-4.052,3.473l-1.736-5.209a41.9,41.9,0,0,0-6.367-11c-1.158-1.736-2.894-2.894-4.052-4.63-.579-.579-.579-1.158-1.158-1.736-.579-1.736-2.315-3.473-3.473-4.63-5.209-5.209-13.891-5.788-19.1,0-4.63,4.052-6.367,8.1-9.839,13.312-11.576,14.47-23.731,30.1-28.361,48.04a53.765,53.765,0,0,0,5.788,2.894c-2.315,0-5.209.579-7.524.579a249.71,249.71,0,0,0-46.882,9.84,60.34,60.34,0,0,0,19.679,6.367c-6.367-.579-12.733-1.158-18.521-1.158a112.384,112.384,0,0,0-13.891,1.158L400,554.328c-1.158.579-2.315.579-2.894,1.158-2.315,0-4.052,1.158-5.788,1.736-2.894,1.157-5.788,2.315-7.524,4.052-2.315,2.315-4.052,3.473-2.894,6.367,3.473,9.839,8.1,19.679,16.206,26.045,1.158,1.158,2.894,2.315,4.052,3.473-2.894-.579-5.788-1.158-8.1-2.894a6.976,6.976,0,0,1-2.894-2.894l-1.736-3.473c-2.894-4.052-5.788-8.1-8.1-12.155a13.728,13.728,0,0,1,6.946-20.837,356.112,356.112,0,0,1,76.4-20.837c13.312-24.888,27.2-47.461,42.831-66.561,5.788-6.946,16.785-6.946,21.994,0,2.315,3.473,5.209,6.367,7.524,9.84a25.693,25.693,0,0,1,4.63,6.366c.579,1.158.579,1.736,1.157,2.894C542.386,489.5,544.7,492.4,546.438,495.291Z"
              transform="translate(14.733 1.437)" fill="#e27e39"/>
        <path id="Path_116" data-name="Path 116"
              d="M419.7,527.195c-1.158-.579-3.473-1.158-4.63-.579a260.306,260.306,0,0,0-4.052,36.464c0,3.473,0,7.524,1.736,10.418a10.73,10.73,0,0,1-4.052-1.158c-.579,0-1.736-.579-1.736-1.158a1.085,1.085,0,0,1,0-1.736c0-2.315.579-4.63.579-7.524v-6.367c.579-5.209.579-9.84,1.158-15.049.579-6.367,1.736-12.155,2.894-18.521,0,0-1.158-1.157-1.158-1.736l-1.158-1.157-2.894-2.894c-8.1-8.682-15.049-17.943-23.152-26.624A5,5,0,0,1,381.5,486.1c6.367,0,12.733.579,19.679.579a29.322,29.322,0,0,0,7.524,1.158c-4.052.579-9.261,1.736-13.312,1.736a2.126,2.126,0,0,0-1.736.579c-.579.579,0,1.157,0,2.315A93.2,93.2,0,0,0,419.7,527.195Z"
              transform="translate(32.079 115.389)" fill="#e27e39"/>
        <path id="Path_117" data-name="Path 117"
              d="M571.326,519.015c0,9.261,0,19.1-.579,28.361A14.069,14.069,0,0,1,552.8,560.109c-27.782-8.1-53.249-16.785-74.664-27.782-20.836,11.576-46.3,20.836-74.085,28.361a14.375,14.375,0,0,1-17.942-12.733c0-2.894-.579-5.788,0-8.682,0-1.157.579-1.736,0-2.894,0-2.315,0-5.209,1.736-7.524,2.894-3.473,7.524-3.473,11.576-2.894,9.261.579,19.1,1.736,28.361,2.315,1.158,0,2.315.579,3.473.579-8.682,0-17.364-.579-26.046-.579a43.82,43.82,0,0,0-8.682.579,12.6,12.6,0,0,0-4.63,2.894c-2.315,2.894-2.894,6.945-2.894,10.418,0,2.315.579,4.63.579,6.367,0,1.157,0,1.736.579,2.315a9,9,0,0,0,3.473,4.63c2.315,1.736,5.788,1.158,8.682,0,15.627-3.473,30.676-8.1,45.724-12.733a35.43,35.43,0,0,0,6.946-2.894c2.315-1.158,4.63-2.894,7.524-4.052,1.158-.579,1.736-.579,2.894-1.158h.579c.579,0,1.158-.579,1.736-.579,1.158-.579,1.736-1.736,2.894-2.315a22.66,22.66,0,0,1,5.788-4.63h1.158c.579,0,1.158.579,1.736,1.158a48.16,48.16,0,0,0,10.418,7.524,24.194,24.194,0,0,0,5.788,2.315h2.315c1.158,0,1.736.579,2.894.579,9.84,2.894,19.1,5.788,28.94,8.682,6.945,1.736,13.312,4.052,20.258,5.788,1.158.579,2.894.579,4.63,1.158,4.052,0,6.946-2.894,10.418-4.63a4.519,4.519,0,0,0,2.315-2.315,19.688,19.688,0,0,0,.579-5.788c.579-9.839,1.157-20.258,1.157-30.1a5.217,5.217,0,0,0-.579-2.894,6.972,6.972,0,0,0-2.894-2.894c-4.63-2.894-9.261-5.788-13.891-8.1h1.736c4.63,0,9.261,0,13.312,1.158C573.063,501.073,571.326,514.385,571.326,519.015Z"
              transform="translate(52.933 170.45)" fill="#e27e39"/>
        <path id="Path_118" data-name="Path 118"
              d="M413.794,476.3c-1.158,0-1.736.579-2.894.579h0A25.074,25.074,0,0,0,413.794,476.3Z"
              transform="translate(172.844 68.468)" fill="#e27e39"/>
        <path id="Path_119" data-name="Path 119"
              d="M496.083,509c-15.049,23.151-31.255,43.988-50.355,62.51,1.158,6.367,1.158,12.733,1.736,19.679v2.315c-.579,1.158-1.157,1.736-2.315,1.736a8.224,8.224,0,0,1-1.158-3.473V576.143c0-1.158,0-2.315-.579-2.894-.579-1.157-1.736-1.736-3.473-2.315a107.942,107.942,0,0,1-11.576-5.788c5.209,2.894,12.155,1.736,17.364-1.158s9.261-7.524,13.312-12.155c8.1-9.261,16.206-19.1,23.731-28.939,5.209-6.367,9.839-13.891,10.418-21.994,0-1.736,0-4.052-1.158-5.209-1.158-1.736-2.894-2.315-4.63-3.473a62.1,62.1,0,0,0-19.679-5.209c-2.894-4.63-7.524-6.946-12.734-7.524-5.209-1.158-10.418-.579-15.627-.579-9.261,0-19.1-.579-28.361-1.158a152.571,152.571,0,0,1,16.206-1.157c11-.579,23.152-1.158,34.149,1.736a32.626,32.626,0,0,1,6.946,2.315c4.63,1.736,9.261,2.894,13.312,4.63,2.315.579,4.052,1.736,6.367,2.315C497.819,491.061,500.713,501.479,496.083,509Z"
              transform="translate(173.322 67.598)" fill="#e27e39"/>
        <path id="Path_120" data-name="Path 120"
              d="M461.7,504.985a8.225,8.225,0,0,1-3.473,1.158c-6.367-1.158-12.154-1.736-18.521-2.894l-15.627-27.782c-.579-.579-1.158-1.736-1.736-2.315a7.344,7.344,0,0,0-3.473-.579c-5.209,0-9.261-.579-14.47-.579.579,0,.579-.579,1.158-.579a.567.567,0,0,0-.579.579,53.775,53.775,0,0,1,16.785-2.894H423.5c.579,0,.579.579,1.157,1.158a50.6,50.6,0,0,0,4.63,5.788,50.931,50.931,0,0,1,3.473,5.788c2.315,4.052,5.209,8.682,7.524,12.733a12.639,12.639,0,0,0,1.736,2.894c0,.579,1.158,2.894,1.736,2.894a145.462,145.462,0,0,1,15.628,2.315C459.964,503.827,461.122,504.406,461.7,504.985Z"
              transform="translate(141.722 33.995)" fill="#e27e39"/>
        <path id="Path_121" data-name="Path 121"
              d="M578.516,484.236c-5.209,8.1-11,15.628-16.206,23.73-1.158,1.736-3.473,3.473-5.209,5.209l-5.209,5.209c-3.473,3.473-6.946,7.524-10.418,11a10.385,10.385,0,0,0-2.894,4.052,9.863,9.863,0,0,0,0,5.788c.579,2.315.579,4.63,1.158,6.945a127.91,127.91,0,0,0,2.894,14.47l1.736,6.946V569.9a44.676,44.676,0,0,0,1.158,8.682c0,2.894.579,5.209.579,8.1a18.58,18.58,0,0,1-1.157,9.84,8,8,0,0,1-1.736,2.315c-1.158.579-2.315,0-3.473,0A33.793,33.793,0,0,1,527,594.207c-7.524-3.473-15.627-6.946-23.152-10.418-4.63-1.736-8.682-3.473-13.312-5.209a24.184,24.184,0,0,1-5.788-2.315c-.579-.579-.579-1.158-1.158-1.736a5.872,5.872,0,0,0-5.788-1.736,21.385,21.385,0,0,0-8.1,4.052l-3.473,1.736c-.579,0-.579.579-1.158,1.158a20.566,20.566,0,0,1-5.209,2.315c-.579.579-1.158.579-2.315,1.158a131.022,131.022,0,0,1-11.576,7.524c-3.473,2.315-7.524,4.63-12.155,5.209-3.473.579-6.367,0-9.84-.579-1.736-.579-3.473-.579-4.63-1.158-.579,0-.579-.579-1.158-.579-1.736-1.157-3.473-1.157-5.209-2.894-2.315-2.315-2.315-5.788-2.315-9.261a302.427,302.427,0,0,1,4.052-39.358c.579-2.894,1.158-6.367,0-9.261a8.226,8.226,0,0,1-1.158-3.473c-.579-.579-1.158-1.736-1.736-2.315-2.315-2.894-4.63-5.209-6.945-8.1-1.158-1.157-1.736-2.894-2.894-4.052a12.628,12.628,0,0,1-2.315-2.894c-2.894-4.63-6.367-8.682-8.682-13.891s-4.052-10.418-5.788-15.627c3.473,1.157,5.788,4.052,8.682,6.945a338.659,338.659,0,0,1,23.152,27.2,47.318,47.318,0,0,1,6.945,11.576c1.736,4.63,2.315,9.84,2.894,15.049a102.342,102.342,0,0,1-2.894,29.518c-.579,2.894-1.158,6.367,1.158,8.1,1.736,1.157,3.473.579,5.209,0a106.921,106.921,0,0,0,26.046-12.155c4.052-2.315,8.1-5.209,12.734-6.367a23.631,23.631,0,0,1,11-.579c17.364,2.315,31.833,13.312,48.618,17.364,1.157,0,1.736.579,2.894,0s1.158-2.315.579-3.473c-1.736-12.733-3.473-26.046-4.052-38.779,0-4.052-.579-8.682,1.158-12.155,1.736-4.052,4.63-6.946,7.524-9.84A235.321,235.321,0,0,1,578.516,484.236Z"
              transform="translate(49.794 98.153)" fill="#e27e39"/>
        <path id="Path_122" data-name="Path 122"
              d="M579.045,543.757a12.108,12.108,0,0,0-2.315-3.473c-1.736-2.315-4.052-2.894-6.945-2.894a44.676,44.676,0,0,1-8.682-1.158c-12.155-1.736-26.624-1.736-37.621-6.367-3.473-1.736-5.788-2.894-7.524-6.367-2.315-5.209-5.209-9.84-7.524-15.049-2.894-6.367-6.367-13.312-9.261-19.679-1.736-3.473-2.894-6.367-4.63-9.84a5.78,5.78,0,0,0-2.315-2.894,12.114,12.114,0,0,1-2.315-3.473c-1.736-2.315-5.209-4.052-8.1-3.473-3.473.579-5.788,3.473-8.1,6.367,0,.579-.579.579-.579,1.158-9.261,12.733-15.049,27.2-22.573,41.094l-1.158,1.736-5.788,11c-16.785,2.315-34.728,3.473-50.934,9.261-2.315.579-4.63,1.736-5.788,3.473-2.315,2.894-2.315,4.052-1.158,7.524,6.946,17.364,22.573,31.255,34.727,45.146,1.158,1.736,0,5.209-.579,6.946a10.9,10.9,0,0,0-1.158,4.63v2.894c-1.736,11-4.63,21.416-6.367,32.413-1.158,6.366,0,13.312,6.946,15.049,8.682,2.894,17.364-2.894,24.309-6.367a221.557,221.557,0,0,0,25.467-14.47c2.315-1.158,5.209-3.473,8.1-3.473.579,0,.579-.579,1.158-.579l13.312,6.367c13.891,6.946,28.361,11,42.83,16.206,4.63,1.736,8.1,0,8.682-5.209.579-15.049-8.682-31.254-6.367-46.3.579-2.315,0-4.052,0-6.946a4.53,4.53,0,0,1,.579-4.63l3.473-3.473c10.418-9.84,20.258-19.679,29.518-30.1,1.736-1.736,4.052-4.052,5.209-6.367,1.158-1.736,2.315-2.894,3.473-4.63C579.624,547.809,580.2,545.494,579.045,543.757Zm-30.1,20.258-2.315,2.315c-1.157,1.158-2.894,2.315-4.052,3.473l-2.894,2.894-14.47,13.891-1.157,4.052c-2.894,8.1-1.158,16.785.579,23.152a6.3,6.3,0,0,1,.578,2.894,122.172,122.172,0,0,1,1.158,15.049h0a50.968,50.968,0,0,0,1.158,9.84c-9.261-3.473-17.943-6.945-26.625-11L477.757,619l-6.367,3.473a40.172,40.172,0,0,0-12.155,5.209l-.579.579c-8.682,5.209-16.785,10.418-26.046,15.049l-3.473,1.736-3.473,1.736c.579-2.894,1.158-5.209,1.736-8.1.579-2.315.579-4.052,1.158-6.367s1.158-5.209,1.736-7.524a29.046,29.046,0,0,0,1.158-6.945,29.049,29.049,0,0,1,1.158-6.946c.579-2.315,1.158-5.209,1.736-7.524.579-1.736.579-2.894,1.158-4.63,0-.579.579-.579,1.158-1.157h1.158c3.473,0,6.367.579,9.84.579-1.736-1.158-3.473-1.736-5.209-2.894-2.315-1.157-4.052-2.315-6.367-3.473a5.78,5.78,0,0,1-2.894-2.315c-1.158-.579-1.736-1.158-2.894-1.736-.579-.579-.579-1.158-1.158-1.736a37.46,37.46,0,0,0-4.63-5.209L414.09,568.645c-5.788-6.366-10.418-11.576-13.891-17.364,8.682-2.315,18.521-3.473,28.361-4.63l13.891-1.736,9.261-1.158L462.129,523.5l1.158-1.736,6.946-13.891c1.736-4.052,4.052-8.1,5.788-12.155a87.11,87.11,0,0,1,5.788-9.839l11.576,24.888v.579l3.473,6.945a9.78,9.78,0,0,1,1.158,2.894,2.126,2.126,0,0,0,.579,1.736,50.923,50.923,0,0,1,3.473,5.788,54.956,54.956,0,0,1,5.209,12.155c-4.052.579-8.1.579-12.155,1.157a32.991,32.991,0,0,1,7.524.579c2.315,0,5.209.579,7.524.579a135.228,135.228,0,0,1,15.049,2.315,118.558,118.558,0,0,0,13.891,2.894l20.258,2.894Z"
              transform="translate(48.687 33.423)" fill="url(#linear-gradient-4)"/>
    </g>
</svg>
