<svg xmlns="http://www.w3.org/2000/svg" xmlns:xlink="http://www.w3.org/1999/xlink" width="297.179" height="288.08" viewBox="0 0 297.179 288.08">
    <defs>
        <linearGradient id="linear-gradient" x1="0.77" y1="-0.119" x2="0.65" y2="0.148" gradientUnits="objectBoundingBox">
            <stop offset="0" stop-color="#cf5c2a"/>
            <stop offset="1" stop-color="#5a173e"/>
        </linearGradient>
        <linearGradient id="linear-gradient-2" x1="0.63" y1="-0.017" x2="0.162" y2="1.479" xlink:href="#linear-gradient"/>
        <linearGradient id="linear-gradient-3" x1="0.592" y1="0.012" x2="0.149" y2="2.505" xlink:href="#linear-gradient"/>
        <linearGradient id="linear-gradient-4" x1="0.54" y1="1.667" x2="0.512" y2="0.77" xlink:href="#linear-gradient"/>
        <linearGradient id="linear-gradient-5" x1="0.511" y1="0.155" x2="0.477" y2="0.751" gradientUnits="objectBoundingBox">
            <stop offset="0" stop-color="#fdbf11"/>
            <stop offset="1" stop-color="#c1461b"/>
        </linearGradient>
        <linearGradient id="linear-gradient-6" x1="0.508" y1="1.354" x2="0.508" y2="0.502" gradientUnits="objectBoundingBox">
            <stop offset="0" stop-color="#fec421"/>
            <stop offset="1" stop-color="#bc541b"/>
        </linearGradient>
        <linearGradient id="linear-gradient-7" x1="0.504" y1="1.192" x2="0.504" y2="0.404" xlink:href="#linear-gradient-6"/>
        <linearGradient id="linear-gradient-8" x1="1.236" y1="-0.388" x2="0.097" y2="1.039" gradientUnits="objectBoundingBox">
            <stop offset="0" stop-color="#edd753"/>
            <stop offset="1" stop-color="#030303"/>
        </linearGradient>
    </defs>
    <g id="star" transform="translate(-384.6 -348.6)">
        <path id="Path_94" data-name="Path 94" d="M679.586,461.431a14.186,14.186,0,0,0-6.955-20.864,40.235,40.235,0,0,0-7.534-2.9,130.388,130.388,0,0,0-13.909-4.636c-4.057-1.159-8.113-2.318-12.17-2.318H628.007a3.485,3.485,0,0,1-2.318-.58L623.95,428.4a15.946,15.946,0,0,0-8.693-4.636,12.758,12.758,0,0,1-4.636-.58c-.58,0-1.159-.58-1.739-.58a91.083,91.083,0,0,0-13.329-2.318c0-.58-.58-.58-.58-1.159a63.237,63.237,0,0,0-3.477-6.375A91.929,91.929,0,0,0,581.064,397.1a15.059,15.059,0,0,0-9.273-5.216,14.391,14.391,0,0,0,0-9.852,23.931,23.931,0,0,0-4.057-6.375c-5.216-6.955-10.432-14.489-16.227-21.443A15,15,0,0,0,541.655,349H537.6a6.213,6.213,0,0,0-3.477,1.159,30.491,30.491,0,0,0-8.113,6.955,84.719,84.719,0,0,0-9.273,11.011c-2.9,3.477-5.216,6.955-8.114,10.432a435.722,435.722,0,0,0-28.977,43.465,342.505,342.505,0,0,0-70.124,19.7,12.677,12.677,0,0,0-2.9,1.738c-.58.58-1.739,1.159-2.318,1.738-6.955,5.216-12.75,12.75-17.386,20.284A12.689,12.689,0,0,0,385.18,476.5c.58,3.477,2.9,5.8,5.216,8.114s4.057,5.8,6.375,8.114a6.26,6.26,0,0,0,4.057,1.739c3.477,1.159,6.375,2.318,9.852,3.477a17.359,17.359,0,0,0-4.636,2.318c-.58.58-1.159,1.159-1.159,1.739a2.128,2.128,0,0,0,.58,1.738c4.057,7.534,9.852,15.068,15.647,22.022,5.216,5.8,10.432,11.591,15.648,16.807,0,0,0,1.738-.58,1.738a2.129,2.129,0,0,1-.58,1.739c0,1.159-.58,2.318-.58,3.477-1.159,9.273-1.739,19.125-2.9,28.4-.58,5.8.58,10.432,6.954,11.011-2.318-.58-4.057,1.159-5.216,2.9-4.636,8.113-2.9,19.125-1.739,28.4s8.114,16.807,17.966,13.909c27.818-7.534,53.318-16.807,74.181-28.4q32.164,16.517,74.761,27.818a14.125,14.125,0,0,0,6.954,0,15.794,15.794,0,0,0,6.955-3.477,66.634,66.634,0,0,0,12.171-13.33c2.9-4.057,6.954-9.273,7.534-14.489.58-6.954.58-14.488.58-21.443s0-14.489-2.318-20.863c0-.58-2.9-5.8-2.9-5.216,3.477-2.9,3.477-7.534,3.477-11.591-.58-4.636-.58-8.693-1.159-13.33-.58-1.738-.58-4.057-1.159-5.8,2.9-3.477,5.8-6.375,8.693-9.852C652.927,499.1,666.836,481.135,679.586,461.431Z" transform="translate(0 1.918)" fill="url(#linear-gradient)"/>
        <path id="Path_95" data-name="Path 95" d="M665.789,463.349a263.009,263.009,0,0,1-20.864,28.977,400.449,400.449,0,0,1-29.557,33.034c1.159,6.375,1.159,12.75,1.739,19.7v2.318c-.58,1.159-1.159,1.738-2.318,1.738-.58,0-.58.58-1.159.58a135.59,135.59,0,0,1-22.022,5.216h11.011c4.636,0,8.693,0,13.329,1.159,6.375,1.739,4.636,14.488,4.636,19.7h0c0,9.273,0,19.125-.58,28.4a14.087,14.087,0,0,1-17.966,12.75c-27.818-8.114-53.318-16.807-74.761-27.818-20.863,11.591-46.363,20.864-74.181,28.4a14.393,14.393,0,0,1-17.966-12.75c0-2.9-.58-5.8,0-8.693,0-1.159.58-1.739,0-2.9,0-2.318,0-5.216,1.739-7.534,2.9-3.477,7.534-3.477,11.591-2.9,9.273.58,19.125,1.739,28.4,2.318,2.318,0,4.636.58,6.955.58-8.693-1.738-17.966-4.057-26.659-5.8h0c-5.216-1.159-11.011-2.318-16.227-3.477a10.743,10.743,0,0,1-4.057-1.159c-.58,0-1.739-.58-1.739-1.159a1.086,1.086,0,0,1,0-1.739c0-2.318.58-4.636.58-7.534v-6.375c.58-5.216.58-9.852,1.159-15.068q.869-6.954,1.739-13.909c0-1.159.58-2.9.58-4.057,0,0-1.159-1.159-1.159-1.739l-1.159-1.159-2.9-2.9c-4.057-4.057-7.534-8.693-11.591-13.329s-7.534-9.273-11.591-13.329h0a5.009,5.009,0,0,1-1.739-3.477c6.375,0,12.75.58,19.7.58h5.8c-.58,0-1.159-.58-1.738-.58-6.955-2.318-13.909-4.057-20.863-5.8h-1.159c-2.9-.58-5.8-1.159-8.114-2.9a6.983,6.983,0,0,1-2.9-2.9l-1.738-3.477c-2.9-4.057-5.8-8.114-8.114-12.17a13.745,13.745,0,0,1,6.955-20.864,356.551,356.551,0,0,1,76.5-20.863v-.58c5.216-9.852,10.432-19.7,16.227-28.977,8.113-13.329,16.807-26.079,26.659-37.091,5.8-6.954,16.807-6.954,22.022,0,2.318,3.477,5.216,6.375,7.534,9.852a25.736,25.736,0,0,1,4.636,6.375c.58,1.159.58,1.739,1.159,2.9,1.739,2.9,4.057,5.8,5.8,8.693-1.159,1.159-2.9,2.318-4.057,3.477a48.322,48.322,0,0,1-6.955,4.636,3.011,3.011,0,0,1-2.318,1.159.568.568,0,0,0-.58.58l6.955-1.738h0a51.035,51.035,0,0,1,9.852-1.159h1.738c.58,0,.58.58,1.159.58h0a50.666,50.666,0,0,0,4.636,5.8,50.959,50.959,0,0,1,3.477,5.8c2.318,4.057,5.216,8.693,7.534,12.75a12.676,12.676,0,0,0,1.738,2.9c0,.58,1.159,2.9,1.739,2.9a145.652,145.652,0,0,1,15.648,2.318c1.159,0,1.739.58,2.9,1.159a8.238,8.238,0,0,1-3.477,1.159A116.845,116.845,0,0,1,584.073,428c-1.159,0-1.739.58-2.9.58h1.159a152.7,152.7,0,0,1,16.227-1.159c8.114-.58,16.807-1.159,24.92,0l8.693,1.739a32.684,32.684,0,0,1,6.954,2.318c4.636,1.738,9.273,2.9,13.329,4.636,2.318.58,4.057,1.738,6.375,2.318C666.948,445.963,670.425,455.815,665.789,463.349Z" transform="translate(13.797)" fill="url(#linear-gradient-2)"/>
        <path id="Path_96" data-name="Path 96" d="M603.612,395.409c-33.034,7.534-72.443,1.159-104.9-2.9-15.068-1.738-30.136-4.057-45.2-6.375,5.216-9.852,10.432-19.7,16.227-28.977,11.011,0,21.443-.58,32.454-.58,8.114,0,16.227-.58,24.92-.58h16.807a50.644,50.644,0,0,0,4.636,5.8,50.985,50.985,0,0,1,3.477,5.8c2.318,4.057,5.216,8.693,7.534,12.75a12.677,12.677,0,0,0,1.739,2.9c0,.58,1.159,2.9,1.739,2.9a145.641,145.641,0,0,1,15.648,2.318c1.159,0,1.739.58,2.9,1.159a8.237,8.237,0,0,1-3.477,1.159,116.855,116.855,0,0,1-13.329,4.057c-1.159,0-1.739.58-2.9.58h1.159a152.718,152.718,0,0,1,16.227-1.159C586.805,394.829,595.5,394.829,603.612,395.409Zm-6.955,125.76c-4.057-1.159-8.693-1.159-13.329-1.159H572.317a151.624,151.624,0,0,0,22.022-5.216c.58,0,.58,0,1.159-.58a8,8,0,0,0,2.318-1.739v-2.318c-.58-6.375-.58-13.329-1.738-19.7a400.486,400.486,0,0,0,29.557-33.034H605.35c-27.238-.58-53.9-2.9-81.136-4.057-36.511-1.159-74.181-1.738-110.692,2.318H411.2c-6.375.58-12.75,1.738-19.7,2.9,4.057,4.057,7.534,8.693,11.591,13.329,38.829,4.057,78.817,4.057,117.647,4.636,16.807.58,33.613.58,51,.58-11.011,1.738-22.023,3.477-33.034,4.636-28.4,4.057-57.374,6.955-86.351,9.852-11.011,1.159-22.022,1.739-33.034,2.9-.58,4.636-1.739,9.273-1.739,13.909a131.861,131.861,0,0,0-1.159,15.068v6.375c0,2.318-.58,4.636-.58,7.534v1.738c.58.58,1.159.58,1.739,1.159,1.159.58,2.9.58,4.057,1.159,5.216,1.159,11.011,2.318,16.227,3.477h0c7.534.58,15.068.58,22.6,1.159,28.4,1.739,57.374.58,85.772-1.159,18.545-1.159,36.511-2.318,55.056-4.057C601.293,536.237,603.032,523.487,596.657,521.169Z" transform="translate(33.088 35.486)" fill="url(#linear-gradient-3)"/>
        <path id="Path_97" data-name="Path 97" d="M556.456,382.034c-1.159,1.159-2.9,2.318-4.057,3.477l-1.739-5.216a41.964,41.964,0,0,0-6.375-11.011c-1.159-1.738-2.9-2.9-4.057-4.636-.58-.58-.58-1.159-1.159-1.739-.58-1.738-2.318-3.477-3.477-4.636-5.216-5.216-13.909-5.8-19.125,0-4.636,4.057-6.375,8.114-9.852,13.329-11.591,14.489-23.761,30.136-28.4,48.1a53.859,53.859,0,0,0,5.8,2.9c-2.318,0-5.216.58-7.534.58a250.024,250.024,0,0,0-46.943,9.852,60.42,60.42,0,0,0,19.7,6.375c-6.375-.58-12.75-1.159-18.545-1.159a112.532,112.532,0,0,0-13.909,1.159l-6.954,1.738c-1.159.58-2.318.58-2.9,1.159-2.318,0-4.057,1.159-5.8,1.739-2.9,1.159-5.8,2.318-7.534,4.057-2.318,2.318-4.057,3.477-2.9,6.375,3.477,9.852,8.114,19.7,16.227,26.079,1.159,1.159,2.9,2.318,4.057,3.477-2.9-.58-5.8-1.159-8.114-2.9a6.984,6.984,0,0,1-2.9-2.9l-1.738-3.477c-2.9-4.057-5.8-8.113-8.114-12.17a13.745,13.745,0,0,1,6.955-20.863,356.548,356.548,0,0,1,76.5-20.863c13.329-24.92,27.238-47.523,42.886-66.647,5.8-6.955,16.807-6.955,22.022,0,2.318,3.477,5.216,6.375,7.534,9.852a25.722,25.722,0,0,1,4.636,6.375c.58,1.159.58,1.738,1.159,2.9C552.4,376.238,554.138,379.136,556.456,382.034Z" transform="translate(14.756 1.919)" fill="#e27e39"/>
        <path id="Path_98" data-name="Path 98" d="M429.55,413.948c-1.159-.58-3.477-1.159-4.636-.58a260.667,260.667,0,0,0-4.057,36.511c0,3.477,0,7.534,1.739,10.432a10.743,10.743,0,0,1-4.057-1.159c-.58,0-1.739-.58-1.739-1.159a1.086,1.086,0,0,1,0-1.738c0-2.318.58-4.636.58-7.534v-6.375c.58-5.216.58-9.852,1.159-15.068.58-6.375,1.739-12.17,2.9-18.545,0,0-1.159-1.159-1.159-1.738l-1.159-1.159-2.9-2.9c-8.113-8.693-15.068-17.966-23.181-26.659A5.009,5.009,0,0,1,391.3,372.8c6.375,0,12.75.58,19.7.58a29.358,29.358,0,0,0,7.534,1.159c-4.057.58-9.273,1.739-13.329,1.739a2.128,2.128,0,0,0-1.738.58c-.58.58,0,1.159,0,2.318A93.316,93.316,0,0,0,429.55,413.948Z" transform="translate(32.129 116.048)" fill="#e27e39"/>
        <path id="Path_99" data-name="Path 99" d="M581.366,405.743c0,9.273,0,19.125-.58,28.4a14.087,14.087,0,0,1-17.966,12.75C535,438.777,509.5,430.084,488.06,419.073c-20.864,11.591-46.363,20.864-74.181,28.4a14.393,14.393,0,0,1-17.966-12.75c0-2.9-.58-5.8,0-8.693,0-1.159.58-1.738,0-2.9,0-2.318,0-5.216,1.738-7.534,2.9-3.477,7.534-3.477,11.591-2.9,9.273.58,19.125,1.738,28.4,2.318,1.159,0,2.318.58,3.477.58-8.693,0-17.386-.58-26.079-.58a43.861,43.861,0,0,0-8.693.58,12.617,12.617,0,0,0-4.636,2.9c-2.318,2.9-2.9,6.955-2.9,10.432,0,2.318.58,4.636.58,6.375,0,1.159,0,1.739.58,2.318a9.011,9.011,0,0,0,3.477,4.636c2.318,1.739,5.8,1.159,8.693,0,15.647-3.477,30.715-8.113,45.784-12.75a35.455,35.455,0,0,0,6.955-2.9c2.318-1.159,4.636-2.9,7.534-4.057,1.159-.58,1.738-.58,2.9-1.159h.58c.58,0,1.159-.58,1.738-.58,1.159-.58,1.739-1.739,2.9-2.318a22.684,22.684,0,0,1,5.8-4.636h1.159c.58,0,1.159.58,1.739,1.159a48.205,48.205,0,0,0,10.432,7.534,24.211,24.211,0,0,0,5.8,2.318h2.318c1.159,0,1.739.58,2.9.58,9.852,2.9,19.125,5.8,28.977,8.693,6.954,1.739,13.329,4.057,20.284,5.8,1.159.58,2.9.58,4.636,1.159,4.057,0,6.954-2.9,10.432-4.636a4.525,4.525,0,0,0,2.318-2.318,19.713,19.713,0,0,0,.58-5.8c.579-9.852,1.159-20.284,1.159-30.136a5.224,5.224,0,0,0-.58-2.9,6.982,6.982,0,0,0-2.9-2.9c-4.636-2.9-9.273-5.8-13.909-8.114H563.4c4.636,0,8.693,0,13.329,1.159C583.1,387.777,580.786,400.527,581.366,405.743Z" transform="translate(53.016 171.196)" fill="#e27e39"/>
        <path id="Path_100" data-name="Path 100" d="M423.6,363c-1.159,0-1.738.58-2.9.58h0A5.224,5.224,0,0,1,423.6,363Z" transform="translate(173.114 69.054)" fill="#e27e39"/>
        <path id="Path_101" data-name="Path 101" d="M505.993,395.646c-15.068,23.182-31.3,44.045-50.42,62.59,1.159,6.375,1.159,12.75,1.738,19.7v2.318c-.58,1.159-1.159,1.739-2.318,1.739a8.236,8.236,0,0,1-1.159-3.477V462.873c0-1.159,0-2.318-.58-2.9-.58-1.159-1.738-1.738-3.477-2.318a108.022,108.022,0,0,1-11.591-5.8c5.216,2.9,12.17,1.739,17.386-1.159s9.273-7.534,13.329-12.17c8.114-9.273,16.227-19.125,23.761-28.977,5.216-6.375,9.852-13.909,10.432-22.022,0-1.738,0-4.057-1.159-5.216-1.159-1.738-2.9-2.318-4.636-3.477a62.194,62.194,0,0,0-19.7-5.216c-2.9-4.636-7.534-6.955-12.75-7.534-5.216-1.159-10.432-.58-15.647-.58-9.273,0-19.125-.58-28.4-1.159a152.727,152.727,0,0,1,16.227-1.159c11.011-.58,23.182-1.159,34.193,1.738a32.673,32.673,0,0,1,6.955,2.318c4.636,1.738,9.273,2.9,13.329,4.636,2.318.58,4.057,1.739,6.375,2.318C507.152,378.26,510.629,388.112,505.993,395.646Z" transform="translate(173.593 67.703)" fill="#e27e39"/>
        <path id="Path_102" data-name="Path 102" d="M471.575,391.732a8.237,8.237,0,0,1-3.477,1.159c-6.375-1.159-12.171-1.739-18.545-2.9L433.9,362.175c-.58-.58-1.159-1.739-1.738-2.318a7.351,7.351,0,0,0-3.477-.58c-5.216,0-9.273-.58-14.488-.58.58,0,.58-.58,1.159-.58a.568.568,0,0,0-.58.58,53.84,53.84,0,0,1,16.807-2.9h1.738c.58,0,.58.58,1.159,1.159a50.621,50.621,0,0,0,4.636,5.8,50.948,50.948,0,0,1,3.477,5.8c2.318,4.057,5.216,8.693,7.534,12.75a12.673,12.673,0,0,0,1.738,2.9c0,.58,1.159,2.9,1.739,2.9a145.633,145.633,0,0,1,15.648,2.318C469.836,390.572,471,390.572,471.575,391.732Z" transform="translate(141.943 34.527)" fill="#e27e39"/>
        <path id="Path_103" data-name="Path 103" d="M588.466,370.939c-5.216,8.114-11.011,15.648-16.227,23.761-1.159,1.739-3.477,3.477-5.216,5.216l-5.216,5.216c-3.477,3.477-6.955,7.534-10.432,11.011a10.4,10.4,0,0,0-2.9,4.057,9.877,9.877,0,0,0,0,5.8c.58,2.318.58,4.636,1.159,6.955a128.085,128.085,0,0,0,2.9,14.488l1.738,6.955v2.318a44.735,44.735,0,0,0,1.159,8.693c0,2.9.58,5.216.58,8.114a18.6,18.6,0,0,1-1.159,9.852,8,8,0,0,1-1.739,2.318c-1.159.58-2.318,0-3.477,0a33.835,33.835,0,0,1-12.75-4.636c-7.534-3.477-15.648-6.955-23.182-10.432-4.636-1.739-8.693-3.477-13.329-5.216a24.225,24.225,0,0,1-5.8-2.318c-.58-.58-.58-1.159-1.159-1.739a5.881,5.881,0,0,0-5.8-1.738,21.408,21.408,0,0,0-8.114,4.057l-3.477,1.739c-.58,0-.58.58-1.159,1.159a20.589,20.589,0,0,1-5.216,2.318c-.58.58-1.159.58-2.318,1.159a131.1,131.1,0,0,1-11.591,7.534c-3.477,2.318-7.534,4.636-12.17,5.216-3.477.58-6.375,0-9.852-.58-1.738-.58-3.477-.58-4.636-1.159-.58,0-.58-.58-1.159-.58-1.738-1.159-3.477-1.159-5.216-2.9-2.318-2.318-2.318-5.8-2.318-9.273a302.8,302.8,0,0,1,4.057-39.408c.58-2.9,1.159-6.375,0-9.273a8.238,8.238,0,0,1-1.159-3.477c-.58-.58-1.159-1.738-1.739-2.318-2.318-2.9-4.636-5.216-6.954-8.114-1.159-1.159-1.739-2.9-2.9-4.057a12.642,12.642,0,0,1-2.318-2.9c-2.9-4.636-6.375-8.693-8.693-13.909s-4.057-10.432-5.8-15.648c3.477,1.159,5.8,4.057,8.693,6.955a339.166,339.166,0,0,1,23.182,27.238,47.381,47.381,0,0,1,6.955,11.591c1.739,4.636,2.318,9.852,2.9,15.068a102.482,102.482,0,0,1-2.9,29.556c-.58,2.9-1.159,6.375,1.159,8.114,1.738,1.159,3.477.58,5.216,0a107.049,107.049,0,0,0,26.079-12.17c4.057-2.318,8.114-5.216,12.75-6.375a23.667,23.667,0,0,1,11.011-.58c17.386,2.318,31.875,13.329,48.681,17.386,1.159,0,1.739.58,2.9,0s1.159-2.318.58-3.477c-1.739-12.75-3.477-26.079-4.057-38.829,0-4.057-.58-8.693,1.159-12.17,1.738-4.057,4.636-6.955,7.534-9.852C558.33,390.643,573.978,379.632,588.466,370.939Z" transform="translate(49.393 98.785)" fill="#e27e39"/>
        <path id="Path_104" data-name="Path 104" d="M589.1,430.454a12.129,12.129,0,0,0-2.318-3.477c-1.739-2.318-4.057-2.9-6.955-2.9a44.733,44.733,0,0,1-8.693-1.159c-12.17-1.738-26.659-1.738-37.67-6.375-3.477-1.738-5.8-2.9-7.534-6.375-2.318-5.216-5.216-9.852-7.534-15.068-2.9-6.375-6.375-13.329-9.273-19.7-1.739-3.477-2.9-6.375-4.636-9.852a5.787,5.787,0,0,0-2.318-2.9,12.123,12.123,0,0,1-2.318-3.477c-1.739-2.318-5.216-4.057-8.114-3.477-3.477.58-5.8,3.477-8.113,6.375,0,.58-.58.58-.58,1.159-9.273,12.75-15.068,27.238-22.6,41.147l-1.159,1.739-5.8,11.011c-16.807,2.318-34.772,3.477-51,9.273-2.318.58-4.636,1.739-5.8,3.477-2.318,2.9-2.318,4.057-1.159,7.534,6.955,17.386,22.6,31.3,34.772,45.2,1.159,1.739,0,5.216-.58,6.955a10.917,10.917,0,0,0-1.159,4.636v2.9c-1.739,11.011-4.636,21.443-6.375,32.454-1.159,6.375,0,13.329,6.954,15.068,8.693,2.9,17.386-2.9,24.341-6.375a221.832,221.832,0,0,0,25.5-14.489c2.318-1.159,5.216-3.477,8.114-3.477.58,0,.58-.58,1.159-.58l13.329,6.375c13.909,6.955,28.4,11.011,42.886,16.227,4.636,1.739,8.114,0,8.693-5.216.58-15.068-8.693-31.3-6.375-46.363.58-2.318,0-4.057,0-6.954a4.537,4.537,0,0,1,.58-4.636l3.477-3.477c10.432-9.852,20.284-19.7,29.557-30.136,1.738-1.739,4.057-4.057,5.216-6.375,1.159-1.739,2.318-2.9,3.477-4.636C589.676,434.511,589.676,432.772,589.1,430.454ZM558.96,451.317l-2.318,2.318c-1.159,1.159-2.9,2.318-4.057,3.477l-2.9,2.9L535.2,473.919l-1.739,4.057c-2.9,8.114-1.159,16.807.58,23.182a6.3,6.3,0,0,1,.58,2.9,122.362,122.362,0,0,1,1.159,15.068h0a51.035,51.035,0,0,0,1.159,9.852c-9.273-3.477-17.966-6.955-26.659-11.011L487.1,506.374l-6.375,3.477a40.231,40.231,0,0,0-12.17,5.216l-.58.58c-8.693,5.216-16.807,10.432-26.079,15.068l-3.477,1.738-3.477,1.739c.58-2.9,1.159-5.216,1.738-8.114.58-2.318.58-4.057,1.159-6.375s1.159-5.216,1.739-7.534a29.086,29.086,0,0,0,1.159-6.955,29.087,29.087,0,0,1,1.159-6.954c.58-2.318,1.159-5.216,1.738-7.534.58-1.739.58-2.9,1.159-4.636,0-.58.58-.58,1.159-1.159h1.159c3.477,0,6.375.58,9.852.58-1.738-1.159-3.477-1.738-5.216-2.9-2.318-1.159-4.057-2.318-6.375-3.477a5.786,5.786,0,0,1-2.9-2.318c-1.159-.58-1.739-1.159-2.9-1.738-.58-.58-.58-1.159-1.159-1.739a37.508,37.508,0,0,0-4.636-5.216l-10.432-12.171c-5.8-6.375-10.432-11.591-13.909-17.386,8.693-2.318,18.545-3.477,28.4-4.636l13.909-1.739,9.273-1.159L471.45,410.75l1.159-1.739,6.955-13.909c1.738-4.057,4.057-8.114,5.8-12.17a87.256,87.256,0,0,1,5.8-9.852L502.745,398v.58l3.477,6.954a9.791,9.791,0,0,1,1.159,2.9,2.128,2.128,0,0,0,.58,1.738,50.941,50.941,0,0,1,3.477,5.8,55.026,55.026,0,0,1,5.216,12.17c-4.057.58-8.113.58-12.171,1.159a33.044,33.044,0,0,1,7.534.58c2.318,0,5.216.58,7.534.58a135.347,135.347,0,0,1,15.068,2.318,118.683,118.683,0,0,0,13.909,2.9l20.284,2.9Z" transform="translate(48.763 33.475)" fill="url(#linear-gradient-4)"/>
        <path id="Path_105" data-name="Path 105" d="M562.129,432.755a30.49,30.49,0,0,1-6.955,8.113l-.58.58h0c-4.636,4.636-9.852,8.693-12.17,11.011-4.057,4.057-11.591,8.693-14.489,14.488-3.477,6.375,0,17.966,1.159,24.92,0,.58,0,1.159.58,1.159h0c1.739,7.534,4.636,15.068,4.057,22.6,0,4.057-2.9,5.8-6.955,4.057A298.163,298.163,0,0,1,494.9,508.095c-1.739-.58-3.477-1.739-5.216-2.318l-11.591-5.8h0c-.58,0-.58.58-1.159.58-2.318,0-5.216,1.739-6.954,2.9-6.955,4.057-14.489,8.693-22.023,12.17-5.8,2.9-12.75,6.955-19.7,5.8a2.129,2.129,0,0,1-1.739-.58c-6.375-1.739-7.534-8.114-6.375-13.329l3.477-15.648a60.653,60.653,0,0,1,2.318-9.852c.58-3.477,4.636-12.17,2.318-14.488-9.273-10.432-20.864-20.864-27.238-33.034h0c-1.159-1.739-1.739-4.057-2.9-5.8-1.159-2.9-1.159-4.057,0-5.8l.58-.58c1.159-1.739,2.9-2.318,5.216-2.9,8.114-2.9,17.386-4.636,26.079-5.8,5.8-.58,12.17-1.738,17.966-2.318l4.057-7.534,1.159-2.318.58-1.738a34.387,34.387,0,0,1,2.318-4.636c5.216-10.432,10.432-20.863,16.807-30.716l.58-.58c1.738-2.318,4.057-5.216,6.954-5.8s5.216,1.159,6.955,2.9c7.534,8.114,11.011,21.443,16.227,31.3,2.318,4.636,4.636,8.693,6.955,13.329,1.159,2.9,2.9,4.057,6.375,5.8,9.852,4.057,22.022,4.057,32.454,5.216a33.918,33.918,0,0,0,7.534,1.159,7.441,7.441,0,0,1,5.8,2.318,12.658,12.658,0,0,1,1.738,2.9C565.607,425.8,564.447,429.278,562.129,432.755Z" transform="translate(60.662 44.503)" fill="url(#linear-gradient-5)"/>
        <path id="Path_106" data-name="Path 106" d="M448.879,373.775a3.6,3.6,0,0,1-3.477,2.318c-14.489,3.477-28.977,4.636-43.466,4.636a7.351,7.351,0,0,1-3.477-.58c-1.159-.58-1.159-1.739-1.159-3.477l.58-.58c1.159-1.738,2.9-2.318,5.216-2.9,8.114-2.9,17.386-4.636,26.079-5.8h1.159a61.886,61.886,0,0,1,14.489,1.739C446.561,369.718,449.459,371.457,448.879,373.775Z" transform="translate(60.901 90.154)" fill="#fdd768"/>
        <path id="Path_107" data-name="Path 107" d="M513.576,433.234a30.49,30.49,0,0,1-6.955,8.114l-.58.58h0c-4.636,3.477-10.432,5.8-15.647,7.534-1.159.58-3.477.58-4.057-.58s0-2.318.58-3.477a32.211,32.211,0,0,1,12.75-12.17c1.159-.58,2.9-2.318,2.318-3.477-.58-.58-1.159-.58-1.739-1.159-8.693-1.738-17.386-2.318-26.079-3.477s-17.386-4.057-23.761-11.011c-8.693-9.273-9.273-24.341-17.386-34.193-5.216,6.954-9.852,13.329-15.068,19.7-1.738,2.318-6.954,7.534-9.852,2.9-1.159-1.738-.58-4.636-.58-7.534,5.216-10.432,10.432-20.863,16.807-30.715l.58-.58c1.738-2.318,4.057-5.216,6.955-5.8s5.216,1.159,6.955,2.9c7.534,8.113,11.011,21.443,16.227,31.3,2.318,4.636,4.636,8.693,6.954,13.329,1.159,2.9,2.9,4.057,6.375,5.8,9.852,4.057,22.023,4.057,32.454,5.216a33.916,33.916,0,0,0,7.534,1.159,7.44,7.44,0,0,1,5.8,2.318,12.667,12.667,0,0,1,1.739,2.9C517.053,426.28,515.894,429.757,513.576,433.234Z" transform="translate(109.215 44.023)" fill="#fdd768"/>
        <path id="Path_108" data-name="Path 108" d="M424.574,413.911a14.532,14.532,0,0,0,2.318,4.057c1.159,1.159,2.9,1.738,4.057.58,1.739-1.159,1.739-3.477,1.739-5.8-.58-6.375-1.159-12.75-2.9-18.545-1.159-2.9-1.738-5.8-2.9-8.693-1.159-2.318-2.318-4.636-4.636-6.375-2.9-1.739-4.057,1.159-4.057,3.477-.58,4.057,0,8.114.58,12.17,1.159,5.8,2.318,11.591,4.636,16.807C423.994,412.752,424.574,413.332,424.574,413.911Z" transform="translate(159.968 143.903)" fill="#fdd768"/>
        <path id="Path_109" data-name="Path 109" d="M549.66,416.6c0,.58-.58,1.159-1.159,1.738a44.884,44.884,0,0,1-5.8,6.955c-2.9,2.318-5.216,5.216-8.114,6.954a47.362,47.362,0,0,0-5.216,4.636c-1.159,1.159-2.9,2.318-4.636,4.057-.58.58-1.739,1.159-2.9,2.318a39.984,39.984,0,0,0-9.273,10.432c-1.738,3.477-2.318,6.955-2.9,11.011a78.544,78.544,0,0,0,1.159,11.591c.58,1.739.58,3.477,1.159,5.216a67.389,67.389,0,0,0,2.318,10.432c.579,1.739.579,3.477,1.159,5.216a36.936,36.936,0,0,0,1.159,4.057c-9.273-2.9-17.966-5.8-26.079-9.852a17.357,17.357,0,0,1-4.636-2.318L474.9,483.821l-1.739-1.159h-6.375l-1.159,1.159a22.751,22.751,0,0,0-7.534,3.477l-.58.58a4.393,4.393,0,0,1-2.318,1.159c-5.8,3.477-12.17,7.534-19.125,10.432-.58.58-1.739.58-2.9,1.159-3.477,1.739-7.534,4.057-10.432,4.057H421a4.014,4.014,0,0,1,0-2.9,33.913,33.913,0,0,0,1.159-7.534c.58-2.9,1.159-5.216,1.738-8.113l2.318-9.852c0-.58.58-1.159.58-2.318,1.739-6.375,4.636-14.489-.58-20.284a69.492,69.492,0,0,0-6.375-6.955c-.58-1.159-1.738-1.738-2.318-2.9-6.375-6.955-13.329-13.909-17.386-22.022l-.58-1.159c-.58-.58-.58-1.159-1.159-1.738,9.273-3.477,19.7-4.636,30.716-5.8,3.477-.58,7.534-1.159,11.011-1.738l4.636-.58,6.955-13.329.58-1.159a27.062,27.062,0,0,0,2.9-5.8.568.568,0,0,1,.58-.58c.58-.58.58-1.159,1.159-1.738l1.739-3.477a209.013,209.013,0,0,1,12.75-22.6,2.024,2.024,0,0,0,.58-1.159c0-.58.58-.58.58-1.159,3.477,4.057,6.375,10.432,8.693,16.227l5.216,12.17.58.58c2.318,4.057,4.057,8.114,6.375,12.17a18.1,18.1,0,0,0,11.011,9.852c.58,0,.58,0,1.159.58,8.113,3.477,17.386,4.057,25.5,4.636,2.9,0,5.8.58,8.114.58a5.225,5.225,0,0,1,2.9.58A45.052,45.052,0,0,1,549.66,416.6Z" transform="translate(66.177 53.709)" fill="url(#linear-gradient-6)"/>
        <path id="Path_110" data-name="Path 110" d="M548.7,417.554c0,.58-.58,1.159-1.159,1.739a44.883,44.883,0,0,1-5.8,6.955c-2.9,2.318-5.216,5.216-8.114,6.954a47.386,47.386,0,0,0-5.216,4.636c-1.159,1.159-2.9,2.318-4.636,4.057-.58.58-1.738,1.159-2.9,2.318a33.919,33.919,0,0,1-7.534,1.159c-29.556,5.216-60.272,5.8-89.829,0-1.739-.58-4.057-.58-5.8-1.159-6.375-6.955-13.329-13.909-17.386-22.022l-.58-1.159h0c-.58-.58-.58-1.159-1.159-1.738,9.273-3.477,19.7-4.636,30.716-5.8,3.477-.58,7.534-1.159,11.011-1.738l4.636-.58,6.954-13.329.58-1.159c2.318-4.057,4.057-8.114,6.375-12.17a209.06,209.06,0,0,1,12.75-22.6,2.023,2.023,0,0,0,.58-1.159c0-.58.58-.58.58-1.159,3.477,4.057,6.375,10.432,8.693,16.227L486.69,388l.58.58c2.318,4.057,4.057,8.114,6.375,12.17a18.1,18.1,0,0,0,11.011,9.852c8.693,3.477,17.966,4.636,26.659,5.216,2.9,0,5.8.58,8.114.58a5.224,5.224,0,0,1,2.9.58A28.437,28.437,0,0,0,548.7,417.554Z" transform="translate(67.135 52.749)" fill="url(#linear-gradient-7)"/>
        <path id="Path_111" data-name="Path 111" d="M438.265,389.736a2.024,2.024,0,0,1-.58,1.159v-.58c0-.58.58-1.739.58-2.318ZM486.946,410.6c-4.636-1.738-8.113-4.636-11.011-9.852a122.576,122.576,0,0,0-6.375-12.17l-.58-.58a55.014,55.014,0,0,1-5.216-12.17c-2.318-5.8-5.216-12.17-8.693-16.227a2.024,2.024,0,0,0-.58,1.159c0,.58-.58.58-.58,1.159a209.125,209.125,0,0,0-12.75,22.6L439.424,388a6.54,6.54,0,0,1,6.375-1.739c3.477,1.159,5.8,4.057,7.534,7.534,2.318,3.477,4.636,6.955,4.057,11.011,0,2.9-1.738,5.8-2.9,8.693-11.011,22.023-22.6,43.465-33.613,65.488-2.318,4.636-4.636,9.273-8.114,12.75a13.686,13.686,0,0,1-5.216,3.477,7.35,7.35,0,0,1-3.477-.58,33.913,33.913,0,0,0-1.159,7.534,4.013,4.013,0,0,0,0,2.9h1.739c2.9,0,6.954-1.738,10.432-4.057,1.159-.58,1.738-1.159,2.9-1.159l19.125-10.432a8.237,8.237,0,0,1,1.159-3.477c5.8-10.432,11.011-20.864,16.807-31.3,1.159-2.318,2.9-4.636,4.057-7.534,0-.58.58-.58.58-1.159.58-.58,1.159-1.159,1.159-1.739a115.829,115.829,0,0,1,5.8-12.17,91.326,91.326,0,0,1,8.693-13.909c1.738-2.318,4.057-5.216,6.955-6.375a7.138,7.138,0,0,1,5.8-1.159C487.526,411.179,486.946,411.179,486.946,410.6Z" transform="translate(86.583 52.749)" fill="url(#linear-gradient-8)" style="mix-blend-mode: screen;isolation: isolate"/>
    </g>
</svg>
